<ttFont>
          <CharString index="0">
            -64 -327 rlineto
            -44 -39 -31 -20 -29 hhcurveto
            -32 -18 17 34 13 3 14 5 20 hvcurveto
            58 293 80 callsubr
            -62 -310 rlineto
            -5 -25 -3 -23 -22 vvcurveto
            -83 35 -45 82 60 57 37 42 45 vhcurveto
            4 hlineto
            return
          </CharString>
          <CharString index="1">
            302 -12 rmoveto
            177 154 170 230 152 callgsubr
            -174 96 -102 149 hvcurveto
            80 557 rmoveto
            72 39 -62 -104 -151 -91 -122 -93 -72 -40 63 104 151 92 121 93 hvcurveto
            return
          </CharString>
          <CharString index="2">
            88 320 rmoveto
            -6 -34 -7 -42 -29 vvcurveto
            -154 79 -73 154 139 86 88 200 40 vhcurveto
            76 376 rlineto
            -134 -100 callgsubr
            return
          </CharString>
          <CharString index="3">
            28 hmoveto
            397 -83 callsubr
            -259 hlineto
            34 165 -46 callgsubr
            -213 hlineto
            28 142 rlineto
            251 -83 callsubr
            -386 hlineto
            return
          </CharString>
          <CharString index="4">
            hintmask 01101100
            83 callgsubr
            hintmask 10101100
            -93 callsubr
            hintmask 01011100
            -92 callsubr
            hintmask 01101100
            -99 callgsubr
            hintmask 10101100
            -103 callgsubr
            return
          </CharString>
          <CharString index="5">
            56 261 rmoveto
            -172 97 -101 161 82 72 29 39 50 vhcurveto
            60 311 rlineto
            -227 hlineto
            -21 -112 rlineto
            107 hlineto
            -28 -128 rlineto
            -13 -18 -26 -9 -27 hhcurveto
            -102 -39 65 100 145 88 130 121 42 29 -19 -38 25 hvcurveto
            93 72 rlineto
            65 -37 -61 39 -84 hhcurveto
            -205 57 callsubr
            return
          </CharString>
          <CharString index="6">
            5 110 rmoveto
            -87 64 84 -35 85 hhcurveto
            149 97 93 119 75 -28 42 -63 38 hvcurveto
            -64 39 rlineto
            -51 32 -31 16 33 vvcurveto
            38 30 32 53 48 36 -26 -35 33 vhcurveto
            87 81 rlineto
            60 -50 -71 39 -77 hhcurveto
            -128 -101 -91 -111 -80 38 -46 59 -37 hvcurveto
            62 -38 rlineto
            46 -29 30 -17 -35 vvcurveto
            -47 -38 -28 -56 -56 -54 32 50 -35 vhcurveto
            return
          </CharString>
          <CharString index="7">
            7 -76 rmoveto
            -42 -98 rlineto
            -11 20 33 -9 18 hhcurveto
            102 64 64 119 69 hvcurveto
            268 507 134 callgsubr
            -104 -224 -21 -45 -24 -58 -21 -46 rlinecurve
            -4 hlineto
            -1 47 -3 59 -5 43 -23 224 rcurveline
            -136 hlineto
            return
          </CharString>
          <CharString index="8">
            -58 -12 95 467 97 hstemhm
            37 122 -40 120 99 125 -82 117 hintmask 11101000
            230 291 rmoveto
            64 -36 44 -28 -51 vvcurveto
            -62 -46 -31 -49 -53 -31 38 48 54 31 40 40 28 vhcurveto
            hintmask 11010100
            92 74 rmoveto
            -54 29 -29 28 48 vvcurveto
            51 35 29 41 45 21 -30 -42 -51 -28 -36 -31 -26 vhcurveto
            hintmask 11101000
            -285 -211 rmoveto
            -117 106 -49 90 123 107 73 116 65 -34 50 -45 30 vhcurveto
            4 vlineto
            hintmask 11010100
            69 37 45 56 79 vvcurveto
            104 -88 45 -85 -111 -95 -69 -113 -51 19 -41 36 -37 vhcurveto
            -4 vlineto
            hintmask 11101000
            -75 -30 -62 -60 -88 vvcurveto
            endchar
          </CharString>
          <CharString index="9">
            120 86 66 97 68 -45 39 -59 32 hvcurveto
            -40 23 -42 15 31 vvcurveto
            26 26 21 38 35 29 -20 -25 24 vhcurveto
            75 71 rlineto
            43 -41 -54 33 -68 hhcurveto
            -106 -86 -68 -94 -62 44 -44 56 -31 hvcurveto
            56 -32 30 -13 -29 vvcurveto
            -27 -32 -20 -38 -36 -36 20 42 -35 vhcurveto
            return
          </CharString>
          <CharString index="10">
            138 hmoveto
            136 hlineto
            47 236 276 416 rlineto
            -147 hlineto
            -91 -155 -29 -50 -24 -44 -27 187 callgsubr
            -9 51 -7 43 -9 49 -28 157 rcurveline
            -142 hlineto
            104 -416 rlineto
            return
          </CharString>
          <CharString index="11">
            70 182 rmoveto
            -4 -21 -4 -21 -21 vvcurveto
            -76 41 -55 100 51 39 12 10 26 vhcurveto
            -24 96 rlineto
            -6 -13 -13 -5 -15 hhcurveto
            -35 -16 16 32 11 0 10 2 12 hvcurveto
            43 213 rlineto
            116 150 callgsubr
            -113 hlineto
            25 130 rlineto
            -115 hlineto
            -42 -130 -73 -6 -20 -101 rlineto
            66 hlineto
            return
          </CharString>
          <CharString index="12">
            19 51 22 52 18 49 rrcurveto
            4 hlineto
            -5 -50 -4 -60 -42 vvcurveto
            -4 -312 rlineto
            173 hlineto
            253 652 rlineto
            -131 hlineto
            -110 -313 -22 -68 -27 -71 -24 -70 rlinecurve
            -4 hlineto
            3 70 3 72 1 67 -2 313 rcurveline
            -116 hlineto
            -134 -313 -26 -68 -32 -72 -27 -69 rlinecurve
            -4 hlineto
            8 69 6 71 6 69 21 313 rcurveline
            -140 hlineto
            return
          </CharString>
          <CharString index="13">
            -58 -12 102 212 94 141 110 hstem
            50 127 169 126 vstem
            255 90 rmoveto
            -46 -32 40 71 13 0 13 1 13 hvcurveto
            48 38 35 14 27 hhcurveto
            44 24 -31 -53 -57 -32 -71 -59 hvcurveto
            271 470 rmoveto
            39 -28 -50 48 -79 hhcurveto
            -185 -134 -173 -260 -134 77 -92 121 131 93 119 123 113 -68 53 -90 -35 -54 -21 -39 -36 hvcurveto
            133 27 68 68 76 hhcurveto
            36 24 -20 -30 19 hvcurveto
            endchar
          </CharString>
          <CharString index="14">
            -117 53 -65 87 52 58 30 47 45 vhcurveto
            3 hlineto
            return
          </CharString>
          <CharString index="15">
            -2 -65 rlineto
            111 hlineto
            99 496 rlineto
            -109 hlineto
            return
          </CharString>
          <CharString index="16">
            rlineto
            -74 callsubr
            return
          </CharString>
          <CharString index="17">
            -75 callgsubr
            -64 callgsubr
            return
          </CharString>
          <CharString index="18">
            -69 8 -12 9 25 vvcurveto
            15 11 15 11 7 vhcurveto
            -3 11 18 -2 18 hhcurveto
            126 89 75 114 16 -2 17 -7 15 hvcurveto
            74 hlineto
            19 102 rlineto
            -183 hlineto
            return
          </CharString>
          <CharString index="19">
            -15 -12 -81 callgsubr
            return
          </CharString>
          <CharString index="20">
            rmoveto
            38 28 35 33 31 -22 20 -29 -38 -28 -35 -33 -31 22 -20 29 hvcurveto
            186 hmoveto
            38 194 callgsubr
            -21 20 -29 -39 -27 -35 -33 -31 22 -20 29 hvcurveto
            return
          </CharString>
          <CharString index="21">
            275 637 rmoveto
            5 -13 2 -12 -12 vvcurveto
            -34 -28 -31 -52 -6 vhcurveto
            19 -35 -41 10 -47 hhcurveto
            -176 -155 -170 -230 -174 96 -102 149 hvcurveto
            return
          </CharString>
          <CharString index="22">
            4 -83 callgsubr
            return
          </CharString>
          <CharString index="23">
            rmoveto
            116 76 116 140 97 -60 63 -78 -116 -76 -117 -140 -96 61 -63 77 hvcurveto
            46 334 rmoveto
            34 15 -31 -49 -98 -36 -74 -50 -34 -16 31 49 97 37 75 50 hvcurveto
            return
          </CharString>
          <CharString index="24">
            hlineto
            22 115 rlineto
            return
          </CharString>
          <CharString index="25">
            -38 -47 -49 callgsubr
            return
          </CharString>
          <CharString index="26">
            -17 callsubr
            18 -17 -34 -13 -4 -14 -4 -20 hvcurveto
            -59 -293 -29 callgsubr
            62 310 125 callgsubr
            23 23 vvcurveto
            82 -36 45 -82 -59 -53 -31 -39 -44 vhcurveto
            -4 hlineto
            22 80 38 183 -91 callsubr
            return
          </CharString>
          <CharString index="27">
            rmoveto
            47 -75 callgsubr
            -33 callsubr
          </CharString>
          <CharString index="28">
            115 165 115 142 115 return
          </CharString>
          <CharString index="29">
            rmoveto
            40 86 31 65 25 62 28 67 rlinecurve
            4 hlineto
            2 -69 3 -61 3 -64 4 -86 rcurveline
            13 -267 rmoveto
            143 hlineto
            -65 652 rlineto
            14 callsubr
            endchar
          </CharString>
          <CharString index="30">
            -72 callgsubr
            endchar
          </CharString>
          <CharString index="31">
            -57 -25 -47 -37 -57 vvcurveto
            -100 120 -18 77 124 133 58 119 64 -40 35 -145 18 vhcurveto
            return
          </CharString>
          <CharString index="32">
            -18 -21 -9 -20 hhcurveto
            -169 -176 rmoveto
            -31 28 37 -17 47 hhcurveto
            108 102 89 169 89 -53 67 -82 -79 -71 -64 -87 -65 40 -42 66 29 29 13 17 20 hvcurveto
            -70 -14 -36 -36 -50 hhcurveto
            -30 return
          </CharString>
          <CharString index="33">
            -137 hlineto
            return
          </CharString>
          <CharString index="34">
            vstem
            -5 hmoveto
            450 hlineto
            24 115 rlineto
            -283 hlineto
            353 454 17 83 rlineto
            -421 hlineto
            -23 -115 rlineto
            257 hlineto
            -356 -455 rlineto
            return
          </CharString>
          <CharString index="35">
            rmoveto
            -96 4 callgsubr
            -36 80 rlineto
            -88 130 callgsubr
            rlineto
            107 hlineto
            endchar
          </CharString>
          <CharString index="36">
            hintmask 10101100
            28 hmoveto
            131 hlineto
            50 250 rlineto
            hintmask 10110100
            -88 callgsubr
            hintmask 11001100
            -15 -75 -5 -93 -7 -68 rrcurveto
            -4 hlineto
            -35 143 -106 340 134 callgsubr
            return
          </CharString>
          <CharString index="37">
            -19 21 -21 164 103 280 105 return
          </CharString>
          <CharString index="38">
            131 421 rmoveto
            33 22 -25 -43 -52 -34 -54 -51 -33 -21 24 43 52 33 55 51 hvcurveto
            return
          </CharString>
          <CharString index="39">
            -10 -16 vvcurveto
            -28 -28 -12 -61 -5 vhcurveto
            4 -55 rlineto
            return
          </CharString>
          <CharString index="40">
            rmoveto
            96 3 callgsubr
            36 -63 callsubr
            return
          </CharString>
          <CharString index="41">
            rmoveto
            194 callsubr
            69 hhcurveto
            85 74 63 86 70 -46 44 -63 -8 -15 -1 -6 -13 hvcurveto
            18 61 rlineto
            146 hlineto
            16 85 rlineto
            -225 hlineto
            -54 -194 36 -33 rlineto
            13 21 19 6 18 hhcurveto
            30 21 -18 -33 -36 -30 -27 -35 -33 -23 17 30 -18 hvcurveto
            return
          </CharString>
          <CharString index="42">
            -48 -37 51 callsubr
            return
          </CharString>
          <CharString index="43">
            rmoveto
            39 29 33 38 28 -20 20 -31 -37 -30 -31 -39 -27 20 -22 30 hvcurveto
            188 hmoveto
            38 29 33 38 28 -20 20 -29 103 callsubr
            endchar
          </CharString>
          <CharString index="44">
            -81 rlineto
            88 -38 callsubr
            return
          </CharString>
          <CharString index="45">
            rmoveto
            104 hlineto
            149 149 30 callgsubr
          </CharString>
          <CharString index="46">
            -12 130 callsubr
            -73 hlineto
            -71 -14 32 -66 86 hhcurveto
            return
          </CharString>
          <CharString index="47">
            -58 -89 110 -1 -21 163 94 232 102 hstemhm
            49 125 179 127 hintmask 01111100
            245 256 rmoveto
            -46 -25 36 59 60 36 77 65 46 32 -40 -71 -21 -1 -19 -1 -19 hvcurveto
            -48 -41 -36 -14 -29 hhcurveto
            -249 -257 rmoveto
            hintmask 10111100
            -39 28 50 -49 79 hhcurveto
            190 137 183 270 134 -77 92 -121 -137 -96 -123 -129 -120 70 -56 89 37 52 20 36 40 hvcurveto
            -130 -31 -68 -67 -76 hhcurveto
            -36 -24 21 29 -19 hvcurveto
            endchar
          </CharString>
          <CharString index="48">
            vstem
            -61 callgsubr
            return
          </CharString>
          <CharString index="49">
            118 439 119 return
          </CharString>
          <CharString index="50">
            129 374 rmoveto
            93 29 80 78 119 vvcurveto
            61 -29 36 -45 -51 -32 -39 -43 -40 30 -23 41 vhcurveto
            2 2 0 2 hhcurveto
            -1 -33 -40 -57 -74 -28 rrcurveto
            return
          </CharString>
          <CharString index="51">
            -48 36 -25 50 32 43 16 20 28 vhcurveto
            -23 56 rlineto
            -6 -11 -10 -4 -11 hhcurveto
            -19 -16 11 19 return
          </CharString>
          <CharString index="52">
            -71 -12 103 118 84 110 105 return
          </CharString>
          <CharString index="53">
            rmoveto
            26 17 24 31 16 vhcurveto
            30 -18 26 -12 -31 vvcurveto
            -31 -24 -21 -33 -27 -20 22 25 vhcurveto
            hintmask 11010100
            -18 callsubr
            hintmask 11101000
            -188 10 callgsubr
            hintmask 11010100
            40 -8 callgsubr
            hintmask 11101000
            90 callgsubr
          </CharString>
          <CharString index="54">
            vstem
            149 hmoveto
            137 hlineto
            106 536 rlineto
            171 hlineto
            23 116 rlineto
            -480 hlineto
            -22 -116 rlineto
            171 hlineto
            return
          </CharString>
          <CharString index="55">
            -58 -90 110 191 97 174 108 hstemhm
            293 137 -97 140 hintmask 11110000
            -26 24 rmoveto
            -79 56 82 -35 79 hhcurveto
            135 104 77 129 64 -32 47 -60 28 hvcurveto
            4 vlineto
            hintmask 11101000
            86 34 49 60 84 vvcurveto
            92 -76 61 -115 -66 -62 -16 -44 -64 vhcurveto
            66 -88 rlineto
            26 39 31 14 31 hhcurveto
            46 30 -27 -40 -58 -39 -49 -130 hvcurveto
            -20 -97 rlineto
            hintmask 11110000
            117 32 -34 -55 -60 -44 -42 -69 -44 -45 29 45 -31 hvcurveto
            endchar
          </CharString>
          <CharString index="56">
            -9 -27 -7 vhcurveto
            1 -46 rlineto
            74 11 57 22 71 vvcurveto
            37 -33 26 -94 4 vhcurveto
            -278 73 callsubr
            return
          </CharString>
          <CharString index="57">
            -43 callsubr
            -107 hlineto
            return
          </CharString>
          <CharString index="58">
            -12 callgsubr
            -148 hlineto
            endchar
          </CharString>
          <CharString index="59">
            107 59 82 68 23 25 -14 -33 17 vhcurveto
            -31 -157 rlineto
            return
          </CharString>
          <CharString index="60">
            -596 -34 callgsubr
            hintmask 11110100
            -86 callsubr
            hintmask 11111000
            -5 callgsubr
            hintmask 11110100
            1 callsubr
          </CharString>
          <CharString index="61">
            4 callsubr
            hintmask 01111000
            400 448 rmoveto
            -3 hlineto
            36 -19 -37 24 44 callgsubr
            hintmask 10111000
            -93 callsubr
            hintmask 01111000
            -2 -65 rlineto
            111 hlineto
            141 701 -91 callsubr
            -30 -159 rlineto
            hintmask 10111000
            -181 -442 rmoveto
            -36 -22 27 60 119 64 90 69 23 27 -14 -33 16 hvcurveto
            -35 -176 rlineto
            -56 -34 -39 -17 -33 hhcurveto
            return
          </CharString>
          <CharString index="62">
            -2 -67 rlineto
            111 hlineto
            return
          </CharString>
          <CharString index="63">
            -65 -211 85 141 -21 163 84 153 102 -81 93 return
          </CharString>
          <CharString index="64">
            -79 callgsubr
            -52 127 rlineto
            return
          </CharString>
          <CharString index="65">
            -12 -58 callsubr
            return
          </CharString>
          <CharString index="66">
            67 0 110 197 67 168 110 hstem
            468 140 vstem
            206 110 rmoveto
            39 197 rlineto
            123 hlineto
            15 67 rlineto
            -125 hlineto
            33 168 rlineto
            26 hlineto
            91 60 -47 -108 -190 -96 -87 -125 hvcurveto
            -70 542 rmoveto
            -56 -278 -71 -5 -12 -62 rlineto
            70 hlineto
            -62 -307 rlineto
            204 hlineto
            209 149 139 257 172 -106 84 -182 hvcurveto
            endchar
          </CharString>
          <CharString index="67">
            50 49 35 107 3 vhcurveto
            return
          </CharString>
          <CharString index="68">
            38 -15 callgsubr
            return
          </CharString>
          <CharString index="69">
            hlineto
            -63 149 rlineto
            -107 hlineto
            return
          </CharString>
          <CharString index="70">
            -58 -89 110 217 102 123 115 hstem
            300 138 vstem
            -26 25 rmoveto
            -79 56 73 -35 79 hhcurveto
            131 125 97 157 115 -73 60 -96 -22 -19 -4 -9 -20 hvcurveto
            38 136 rlineto
            224 -83 callsubr
            -342 hlineto
            -81 -327 51 -42 rlineto
            22 43 17 7 33 hhcurveto
            54 33 -32 -64 -75 -54 -46 -61 -52 -40 29 45 -33 hvcurveto
            endchar
          </CharString>
          <CharString index="71">
            25 callgsubr
            5 -55 rlineto
            82 10 69 33 callgsubr
            endchar
          </CharString>
          <CharString index="72">
            76 callsubr
            54 279 rlineto
            223 hlineto
            -57 -279 rlineto
            -70 callgsubr
            -50 -253 rlineto
            -223 hlineto
            52 253 -91 callsubr
            return
          </CharString>
          <CharString index="73">
            157 callgsubr
            64 62 rlineto
            2 hlineto
            42 -62 58 callgsubr
            return
          </CharString>
          <CharString index="74">
            -37 -55 callgsubr
          </CharString>
          <CharString index="75">
            -21 496 -20 return
          </CharString>
          <CharString index="76">
            -74 callgsubr
            141 701 -91 callsubr
            return
          </CharString>
          <CharString index="77">
            vstem
            -59 callgsubr
            return
          </CharString>
          <CharString index="78">
            rmoveto
            43 32 11 callgsubr
            191 hmoveto
            93 callgsubr
            25 -21 34 hvcurveto
            endchar
          </CharString>
          <CharString index="79">
            -12 -62 callgsubr
            return
          </CharString>
          <CharString index="80">
            -222 147 return
          </CharString>
          <CharString index="81">
            rmoveto
            -28 -21 19 55 hvcurveto
            3 0 3 3 vvcurveto
            18 18 21 9 20 hhcurveto
            27 15 -16 -27 -40 -26 -27 -26 hvcurveto
            179 286 rmoveto
            31 -28 -37 17 -47 hhcurveto
            -108 -102 -89 -169 -89 53 -67 82 79 71 64 87 65 -40 42 -66 -29 -29 -13 -17 -20 hvcurveto
            70 14 36 36 50 hhcurveto
            30 17 -10 -19 20 hvcurveto
            endchar
          </CharString>
          <CharString index="82">
            6 -11 -16 4 -25 hhcurveto
            -57 -56 -46 -62 -39 hvcurveto
            -4 hlineto
            return
          </CharString>
          <CharString index="83">
            5 83 -12 callsubr
            return
          </CharString>
          <CharString index="84">
            -58 -12 105 392 105 hstem
            32 129 197 129 vstem
            216 -12 rmoveto
            174 97 199 189 130 -69 84 -115 -174 -97 -199 -189 -129 69 -85 115 hvcurveto
            75 497 rmoveto
            47 20 -42 -77 -125 -55 -148 -75 -46 -21 43 76 126 55 147 75 hvcurveto
            endchar
          </CharString>
          <CharString index="85">
            14 -45 60 hhcurveto
            47 47 44 84 24 hvcurveto
            -72 hlineto
            return
          </CharString>
          <CharString index="86">
            hlineto
            138 -2 callsubr
            return
          </CharString>
          <CharString index="87">
            rmoveto
            219 155 176 211 160 -112 117 -156 -219 -155 -175 -211 -161 112 -117 156 hvcurveto
            101 604 rmoveto
            137 72 -102 -121 -173 -131 -147 -174 -137 -72 101 122 172 131 148 174 hvcurveto
            endchar
          </CharString>
          <CharString index="88">
            -342 rmoveto
            -88 56 -53 83 37 40 11 20 36 vhcurveto
            -29 61 rlineto
            -13 -21 -17 -8 -20 hhcurveto
            -45 -31 23 50 1 hvcurveto
            187 hlineto
            6 11 12 33 32 vvcurveto
            67 -28 58 -81 -89 -97 -83 -121 vhcurveto
            98 61 rmoveto
            46 15 32 23 29 hhcurveto
            31 11 -21 -25 -9 -1 -6 -1 -8 hvcurveto
            endchar
          </CharString>
          <CharString index="89">
            94 131 rmoveto
            -26 13 -20 17 24 vvcurveto
            28 20 16 25 21 17 -13 -25 -20 -13 -19 -24 -21 vhcurveto
            return
          </CharString>
          <CharString index="90">
            44 43 30 20 31 hhcurveto
            33 return
          </CharString>
          <CharString index="91">
            -31 -39 -36 -36 25 -22 return
          </CharString>
          <CharString index="92">
            rmoveto
            66 82 60 86 -22 callgsubr
            -27 -120 -10 -48 rlineto
            143 hmoveto
            -57 165 callgsubr
            return
          </CharString>
          <CharString index="93">
            2 callsubr
            32 hvcurveto
            return
          </CharString>
          <CharString index="94">
            310 rmoveto
            -49 22 -36 33 -29 vhcurveto
            -4 vlineto
            return
          </CharString>
          <CharString index="95">
            40 callsubr
            -61 10 vhcurveto
            return
          </CharString>
          <CharString index="96">
            -42 -33 34 callgsubr
            return
          </CharString>
          <CharString index="97">
            -209 254 76 192 77 hstem
            52 97 125 96 vstem
            184 254 rmoveto
            93 93 82 127 86 -56 50 -75 -94 -93 -82 -127 -86 57 -50 75 hvcurveto
            47 268 rmoveto
            29 14 -23 -38 -73 -34 -58 -48 -29 -14 24 38 73 34 57 48 hvcurveto
            endchar
          </CharString>
          <CharString index="98">
            270 rmoveto
            101 hlineto
            77 390 rlineto
            -78 hlineto
            -37 -23 -26 -12 -54 -8 -13 -62 rcurveline
            87 hlineto
            return
          </CharString>
          <CharString index="99">
            119 callgsubr
            -30 -43 69 callsubr
            return
          </CharString>
          <CharString index="100">
            hlineto
            -100 -109 rlineto
            94 hlineto
            58 58 -22 callgsubr
            39 -58 rlineto
            85 hlineto
            return
          </CharString>
          <CharString index="101">
            -7 14 -68 callsubr
            return
          </CharString>
          <CharString index="102">
            44 -12 117 150 112 178 119 return
          </CharString>
          <CharString index="103">
            529 3 callsubr
            return
          </CharString>
          <CharString index="104">
            29 130 196 112 return
          </CharString>
          <CharString index="105">
            118 rlineto
            return
          </CharString>
          <CharString index="106">
            rmoveto
            106 callgsubr
            -75 hlineto
            -28 -10 -22 -21 -33 24 callgsubr
          </CharString>
          <CharString index="107">
            136 128 149 189 117 -52 65 -88 -49 -51 -23 -36 -44 hvcurveto
            -2 hlineto
            25 93 33 159 -91 callsubr
            return
          </CharString>
          <CharString index="108">
            81 16 47 49 63 vvcurveto
            20 -4 20 -9 20 vhcurveto
            endchar
          </CharString>
          <CharString index="109">
            21 -31 -42 -16 callsubr
            return
          </CharString>
          <CharString index="110">
            496 119 callsubr
            return
          </CharString>
          <CharString index="111">
            hstemhm
            31 142 return
          </CharString>
          <CharString index="112">
            33 37 57 80 vvcurveto
            92 -77 61 -115 -66 -62 -16 -45 -64 vhcurveto
            66 -88 rlineto
            27 39 31 14 31 hhcurveto
            49 28 -27 -41 -52 -37 -46 -134 hvcurveto
            -19 -97 rlineto
            hintmask 11110000
            123 34 -34 -55 -55 -44 -34 -69 -45 -50 29 46 -33 hvcurveto
            endchar
          </CharString>
          <CharString index="113">
            rmoveto
            141 147 148 281 151 -78 79 -110 -140 -149 -150 -281 -150 80 -78 109 hvcurveto
            92 554 rmoveto
            45 26 -33 -78 -187 -78 -151 -76 -46 -25 31 78 187 78 153 76 hvcurveto
            endchar
          </CharString>
          <CharString index="114">
            -50 callsubr
            endchar
          </CharString>
          <CharString index="115">
            hlineto
            63 62 rlineto
            3 hlineto
            41 -62 rlineto
            100 hlineto
            -68 53 callgsubr
          </CharString>
          <CharString index="116">
            rmoveto
            hintmask 01101011
            26 9 16 13 14 hhcurveto
            hintmask 01101101
            29 18 -39 46 hhcurveto
            hintmask 01101011
            40 43 36 74 23 hvcurveto
            -59 hlineto
            hintmask 01101101
            -26 -10 -17 -12 -14 hhcurveto
            hintmask 01101011
            -29 -19 38 -46 hhcurveto
            hintmask 01101101
            -40 -43 -36 -74 -23 hvcurveto
            endchar
          </CharString>
          <CharString index="117">
            rmoveto
            -108 -130 -46 -92 -144 vvcurveto
            -73 19 -68 26 -58 vhcurveto
            76 30 rlineto
            return
          </CharString>
          <CharString index="118">
            rmoveto
            89 hlineto
            122 149 rlineto
            -110 130 callgsubr
            rmoveto
            88 hlineto
            123 149 98 callgsubr
            endchar
          </CharString>
          <CharString index="119">
            rmoveto
            62 hlineto
            26 10 15 13 18 hhcurveto
            hintmask 11010000
            28 22 -39 45 hhcurveto
            hintmask 10110000
            41 45 35 76 23 hvcurveto
            -60 hlineto
            hintmask 11010000
            -28 -12 -16 -13 -16 hhcurveto
            hintmask 10110000
            -28 -24 41 -44 hhcurveto
            -42 -44 -37 -74 -23 hvcurveto
            endchar
          </CharString>
          <CharString index="120">
            hintmask 01111000
            252 3 callsubr
            hintmask 10111000
            -101 -506 rlineto
            -54 -13 -14 -24 -33 hhcurveto
            -17 -13 5 8 -14 hvcurveto
            hintmask 01111000
            -41 -99 rlineto
            hintmask 10111000
            -16 32 29 -6 35 hhcurveto
            112 51 80 100 21 hvcurveto
            return
          </CharString>
          <CharString index="121">
            -164 hlineto
            -344 -652 rlineto
            151 hlineto
            77 164 rlineto
            194 hlineto
            return
          </CharString>
          <CharString index="122">
            52 -3 17 -10 70 callgsubr
            return
          </CharString>
          <CharString index="123">
            hstemhm
            25 callsubr
            return
          </CharString>
          <CharString index="124">
            76 -39 callgsubr
            return
          </CharString>
          <CharString index="125">
            85 25 56 63 75 vvcurveto
            103 -89 46 -130 vhcurveto
            -199 hlineto
            84 -267 rmoveto
            32 162 rlineto
            58 hlineto
            71 33 -25 -42 -57 -38 -38 -91 hvcurveto
            -122 -280 rmoveto
            38 187 rlineto
            85 hlineto
            return
          </CharString>
          <CharString index="126">
            -109 hlineto
            -63 -63 rlineto
            -3 hlineto
            -41 63 rlineto
            -100 hlineto
            68 -118 rlineto
            return
          </CharString>
          <CharString index="127">
            76 callsubr
            38 191 99 107 104 -298 rlineto
            143 hlineto
            -146 384 237 268 rlineto
            -150 hlineto
            -245 -268 rlineto
            -3 hlineto
            53 268 -91 callsubr
            return
          </CharString>
          <CharString index="128">
            -45 callsubr
            88 448 rlineto
            73 19 45 46 62 vvcurveto
            20 -3 20 -10 21 vhcurveto
            endchar
          </CharString>
          <CharString index="129">
            831 rmoveto
            -30 -13 -14 -15 -16 hhcurveto
            hintmask 11011100
            176 callgsubr
            72 hlineto
            31 12 14 14 16 hhcurveto
            hintmask 11101100
            43 callsubr
            return
          </CharString>
          <CharString index="130">
            -56 rlineto
            83 10 67 63 callsubr
            -108 2 vhcurveto
            endchar
          </CharString>
          <CharString index="131">
            41 callgsubr
            -80 172 callgsubr
            return
          </CharString>
          <CharString index="132">
            57 140 296 140 return
          </CharString>
          <CharString index="133">
            -6 callsubr
            98 5 return
          </CharString>
          <CharString index="134">
            rmoveto
            62 52 49 61 58 -48 28 -53 -63 -51 -50 -60 -60 46 -26 55 hvcurveto
            11 142 rmoveto
            23 13 -16 -21 -28 -21 -23 -24 -23 -14 16 21 27 20 24 26 hvcurveto
            endchar
          </CharString>
          <CharString index="135">
            13 13 14 hhcurveto
            hintmask 10100000
            41 -22 callsubr
            62 callsubr
            hintmask 01100000
            -40 157 callsubr
            52 callsubr
          </CharString>
          <CharString index="136">
            rmoveto
            42 33 11 callgsubr
            191 hmoveto
            42 39 callgsubr
            34 hvcurveto
            endchar
          </CharString>
          <CharString index="137">
            157 vstem
            24 -158 rmoveto
            93 29 79 77 120 vvcurveto
            61 -29 36 -45 -51 -32 -40 -43 -39 31 -24 41 vhcurveto
            2 1 0 2 hhcurveto
            -1 -32 -40 -58 -73 -28 rrcurveto
            return
          </CharString>
          <CharString index="138">
            184 callsubr
            23 hvcurveto
            -72 hlineto
            -30 return
          </CharString>
          <CharString index="139">
            46 callsubr
            -77 hlineto
            return
          </CharString>
          <CharString index="140">
            -62 callgsubr
            65 149 return
          </CharString>
          <CharString index="141">
            47 -58 hhcurveto
            -48 -50 -46 -84 return
          </CharString>
          <CharString index="142">
            16 -18 -26 -58 -70 -67 -139 -91 hvcurveto
            return
          </CharString>
          <CharString index="143">
            rmoveto
            -36 callgsubr
            -118 hlineto
            return
          </CharString>
          <CharString index="144">
            rmoveto
            hintmask 01100000
            94 28 55 60 85 vvcurveto
            41 -24 27 -33 -37 -31 -23 -40 -30 23 -20 27 vhcurveto
            1 0 0 1 hhcurveto
            -7 -37 -30 -21 -51 -17 rrcurveto
            endchar
          </CharString>
          <CharString index="145">
            rmoveto
            hintmask 01100000
            94 28 55 60 85 vvcurveto
            41 -24 27 -32 -38 -31 -23 -40 -30 24 -20 27 vhcurveto
            0 1 0 0 vhcurveto
            -7 -37 -30 -21 -51 -17 rrcurveto
            endchar
          </CharString>
          <CharString index="146">
            hstemhm
            88.5 141 199.5 104 return
          </CharString>
          <CharString index="147">
            20 81 vvcurveto
            43 -36 23 return
          </CharString>
          <CharString index="148">
            rmoveto
            108 hlineto
            29 129 39 97 112 110 8 54 rcurveline
            -280 hlineto
            -16 -85 rlineto
            168 hlineto
            -87 -95 -50 -89 -31 -121 rrcurveto
            endchar
          </CharString>
          <CharString index="149">
            rmoveto
            108 130 46 92 144 vvcurveto
            73 -19 68 -26 58 vhcurveto
            -76 -30 rlineto
            18 -49 8 -67 -54 vvcurveto
            -121 -42 -101 -84 -113 vhcurveto
            endchar
          </CharString>
          <CharString index="150">
            40 16 -47 58 hhcurveto
            47 51 46 84 22 hvcurveto
            return
          </CharString>
          <CharString index="151">
            227 0 130 334 188 0 -20 return
          </CharString>
          <CharString index="152">
            385 -83 callsubr
            return
          </CharString>
          <CharString index="153">
            rmoveto
            35 callgsubr
            return
          </CharString>
          <CharString index="154">
            239 175 hstem
            75 169 vstem
            146 239 rmoveto
            59 171 callsubr
            195 callsubr
            -48 -44 29 -31 42 hvcurveto
            endchar
          </CharString>
          <CharString index="155">
            41 callgsubr
            -79 172 callgsubr
            return
          </CharString>
          <CharString index="156">
            46 callgsubr
            12 -20 return
          </CharString>
          <CharString index="157">
            rmoveto
            -65 callsubr
            return
          </CharString>
          <CharString index="158">
            -37 -44 -44 36 -22 38 return
          </CharString>
          <CharString index="159">
            -47 -47 -43 -85 -24 hvcurveto
            endchar
          </CharString>
          <CharString index="160">
            437 820 rmoveto
            -28 -11 -21 -21 -34 hhcurveto
            -32 -15 19 30 2 hvcurveto
            -73 hlineto
            -70 -8 37 -48 76 hhcurveto
            87 59 callgsubr
            return
          </CharString>
          <CharString index="161">
            vstem
            95 355 rmoveto
            89 hlineto
            86 193 48 138 rlineto
            -135 hlineto
            return
          </CharString>
          <CharString index="162">
            -40 122 callgsubr
            -22 hvcurveto
            endchar
          </CharString>
          <CharString index="163">
            rmoveto
            267 117 callgsubr
            return
          </CharString>
          <CharString index="164">
            27 callgsubr
            hvcurveto
            return
          </CharString>
          <CharString index="165">
            -61 rlineto
            68 18 -21 -31 -30 return
          </CharString>
          <CharString index="166">
            rmoveto
            21 26 callsubr
            84 -12 callsubr
            endchar
          </CharString>
          <CharString index="167">
            rmoveto
            -22 8 -14 9 16 vvcurveto
            28 28 12 61 5 vhcurveto
            -4 55 rlineto
            -98 -5 -84 -20 -81 vvcurveto
            -43 36 -22 62 -10 vhcurveto
            endchar
          </CharString>
          <CharString index="168">
            83 10 66 103 callgsubr
            return
          </CharString>
          <CharString index="169">
            -30 -13 -12 -13 -15 hhcurveto
            return
          </CharString>
          <CharString index="170">
            32 73 vvcurveto
            44 -38 31 return
          </CharString>
          <CharString index="171">
            46 callsubr
            -64 hlineto
            -41 -13 -31 -27 -41 hhcurveto
            -45 -18 16 callgsubr
            return
          </CharString>
          <CharString index="172">
            41 37 -26 23 -33 return
          </CharString>
          <CharString index="173">
            35 callgsubr
            -64 hlineto
            -41 -13 -30 -27 -41 hhcurveto
            -45 -19 16 callgsubr
            return
          </CharString>
          <CharString index="174">
            rmoveto
            109 -21 callsubr
            -145 hlineto
            -195 -249 56 callsubr
            endchar
          </CharString>
          <CharString index="175">
            rmoveto
            95 hlineto
            -57 149 rlineto
            -126 hlineto
            endchar
          </CharString>
          <CharString index="176">
            -16 callsubr
            33 hvcurveto
            return
          </CharString>
          <CharString index="177">
            rmoveto
            95 3 callgsubr
            return
          </CharString>
          <CharString index="178">
            18 -17 -34 -13 -4 -14 -4 -20 hvcurveto
            -59 -293 -29 callgsubr
            62 310 rlineto
            5 25 3 23 23 vvcurveto
            82 return
          </CharString>
          <CharString index="179">
            rmoveto
            5 -13 3 -12 -12 vvcurveto
            -34 -30 -31 -48 -6 vhcurveto
            -60 hlineto
            return
          </CharString>
          <CharString index="180">
            -226 -79 callgsubr
            return
          </CharString>
          <CharString index="181">
            41 13 -45 61 140 callsubr
            return
          </CharString>
          <CharString index="182">
            -21 388 120 -12 -20 22 -20 return
          </CharString>
          <CharString index="183">
            vstem
            107 callsubr
            return
          </CharString>
          <CharString index="184">
            -13 -14 4 6 -10 hvcurveto
            return
          </CharString>
          <CharString index="185">
            112 151 callgsubr
            return
          </CharString>
          <CharString index="186">
            573 149 hstem
            return
          </CharString>
          <CharString index="187">
            rlineto
            -136 hlineto
            return
          </CharString>
          <CharString index="188">
            rmoveto
            53 153 14 69 rlineto
            -87 hlineto
            -40 -222 rlineto
            endchar
          </CharString>
          <CharString index="189">
            -21 652 -20 return
          </CharString>
          <CharString index="190">
            hstem
            28 407 -30 callsubr
            return
          </CharString>
          <CharString index="191">
            204 208 89 hstem
            34 703 vstem
            34 208 rmoveto
            685 hlineto
            18 89 rlineto
            -685 hlineto
            endchar
          </CharString>
          <CharString index="192">
            -11 callsubr
            endchar
          </CharString>
          <CharString index="193">
            -11 callgsubr
            118 16 callsubr
            -42 108 hintmask 11111000
            return
          </CharString>
          <CharString index="194">
            94 131 rmoveto
            -27 13 -19 17 24 vvcurveto
            28 20 16 25 21 17 -13 -25 -20 -14 -19 -23 -21 vhcurveto
            return
          </CharString>
          <CharString index="195">
            171 callsubr
            -42 -59 -39 -52 return
          </CharString>
          <CharString index="196">
            hlineto
            17 -27 callgsubr
            endchar
          </CharString>
          <CharString index="197">
            30 13 12 13 15 hhcurveto
            return
          </CharString>
          <CharString index="198">
            vstem
            144 58 rmoveto
            54 35 -78 154 133 152 -42 45 -153 -139 -18 -98 rlineto
            return
          </CharString>
          <CharString index="199">
            -19 -27 callsubr
            96 -21 164 103 280 105 return
          </CharString>
          <CharString index="200">
            181 28 126 rlineto
            -135 hlineto
            -18 -126 rlineto
            return
          </CharString>
          <CharString index="201" raw="1">
            6b686365 a476ad1f 0b 
          </CharString>
          <CharString index="202">
            78 callgsubr
            -19 17 return
          </CharString>
          <CharString index="203">
            hlineto
            91 callgsubr
            return
          </CharString>
          <CharString index="204">
            -474 -684 rlineto
            return
          </CharString>
          <CharString index="205">
            442 94 callgsubr
            -37 -48 -49 callgsubr
            endchar
          </CharString>
          <CharString index="206">
            48 37 34 47 return
          </CharString>
          <CharString index="207">
            28 hmoveto
            237 hlineto
            153 129 61 153 64 -41 41 -72 17 hvcurveto
            2 4 rlineto
            return
          </CharString>
          <CharString index="208">
            70 callsubr
            36 -81 rlineto
            89 -38 callsubr
            endchar
          </CharString>
          <CharString index="209">
            86 70 51 69 38 -21 28 -28 20 vhcurveto
            4 vlineto
            return
          </CharString>
          <CharString index="210">
            -38 -29 -31 -39 -27 20 -22 29 hvcurveto
            return
          </CharString>
          <CharString index="211">
            157 callgsubr
            64 63 rlineto
            2 hlineto
            return
          </CharString>
          <CharString index="212">
            33 73 vvcurveto
            42 -38 31 return
          </CharString>
          <CharString index="213">
            hlineto
            148 callgsubr
            return
          </CharString>
          <CharString index="214">
            28 hmoveto
            138 hlineto
            return
          </CharString>
          <CharString index="215">
            36 23 41 25 39 rlinecurve
            4 hlineto
            -10 -47 -14 -49 -9 -45 -23 -114 rcurveline
            endchar
          </CharString>
          <CharString index="216">
            rmoveto
            47 -39 callsubr
            -36 23 -38 -55 callgsubr
          </CharString>
          <CharString index="217">
            rmoveto
            47 38 34 47 42 -37 24 169 callsubr
          </CharString>
          <CharString index="218">
            134 callgsubr
            endchar
          </CharString>
          <CharString index="219">
            -43 callsubr
            -106 hlineto
            return
          </CharString>
          <CharString index="220">
            32 44 13 19 27 vhcurveto
            -26 66 rlineto
            -7 -11 -8 -2 -8 hhcurveto
            -19 -16 11 21 return
          </CharString>
          <CharString index="221">
            -300 -196 108 -87 -21 692 -20 return
          </CharString>
          <CharString index="222">
            191 callsubr
            hstemhm
            return
          </CharString>
          <CharString index="223">
            rmoveto
            268 hlineto
            17 88 rlineto
            return
          </CharString>
          <CharString index="224">
            rmoveto
            31 13 14 14 16 hhcurveto
            return
          </CharString>
          <CharString index="225">
            -57 -2 callsubr
            -139 hlineto
            return
          </CharString>
          <CharString index="226">
            rmoveto
            -74 callsubr
            return
          </CharString>
          <CharString index="227">
            106 rlineto
            -73 hlineto
            75 375 rlineto
            -163 hlineto
            -302 -385 -18 -96 rlineto
            return
          </CharString>
          <CharString index="228">
            -71 -40 47 234 -91 callsubr
            -61 -303 -65 -37 -24 -110 67 return
          </CharString>
          <CharString index="229">
            vhcurveto
            142 callgsubr
            return
          </CharString>
          <CharString index="230">
            -38 129 callgsubr
            return
          </CharString>
          <CharString index="231">
            26 64 vvcurveto
            37 -28 27 return
          </CharString>
          <CharString index="232">
            168 callgsubr
            95 149 hstemhm
            14 return
          </CharString>
          <CharString index="233">
            58 40 50 50 43 -28 32 195 callsubr
            -49 -44 28 -30 43 hvcurveto
            return
          </CharString>
          <CharString index="234">
            rmoveto
            194 callsubr
            72 hhcurveto
            83 68 46 79 34 -20 32 -37 19 hvcurveto
            return
          </CharString>
          <CharString index="235">
            50 callgsubr
            hstemhm
            return
          </CharString>
          <CharString index="236">
            hlineto
            -69 -2 callsubr
            return
          </CharString>
          <CharString index="237">
            28 35 4 hvcurveto
            return
          </CharString>
          <CharString index="238">
            -4 12 -9 -16 vvcurveto
            -19 -13 -10 -24 -6 vhcurveto
            1 -48 rlineto
            73 11 return
          </CharString>
          <CharString index="239">
            206 -10 55 543 85 hstem
            70 55 493 85 vstem
            618 return
          </CharString>
          <CharString index="240">
            -37 -12 130 callsubr
            -73 hlineto
            170 callgsubr
          </CharString>
          <CharString index="241">
            18 24 22 vhcurveto
            4 hlineto
            2 -34 rlineto
            76 hlineto
            36 180 rlineto
            return
          </CharString>
          <CharString index="242">
            -141 -701 rlineto
            307 396 rmoveto
            35 23 -27 -60 hvcurveto
            return
          </CharString>
          <CharString index="243">
            21 -10 hvcurveto
            21 114 rlineto
            34 22 26 11 21 hhcurveto
            endchar
          </CharString>
          <CharString index="244">
            hstemhm
            22 133 48 63 64 135 return
          </CharString>
          <CharString index="245">
            -124 0 107 282 107 return
          </CharString>
          <CharString index="246">
            80 110 68 76 80 hstem
            return
          </CharString>
          <CharString index="247">
            hhcurveto
            47 47 44 84 23 hvcurveto
            return
          </CharString>
          <CharString index="248">
            rlineto
            30 37 31 21 36 hhcurveto
            return
          </CharString>
          <CharString index="249">
            389 107 108 109 return
          </CharString>
          <CharString index="250">
            52 124 callsubr
            return
          </CharString>
          <CharString index="251">
            31 39 37 36 -27 21 return
          </CharString>
          <CharString index="252">
            -35 -11 186 callsubr
            return
          </CharString>
          <CharString index="253">
            -5 vhcurveto
            4 -55 rlineto
            99 return
          </CharString>
          <CharString index="254">
            54 66 71 18 hvcurveto
            return
          </CharString>
          <CharString index="255">
            131 60 130 return
          </CharString>
          <CharString index="256">
            97 -437 -97 vlineto
            return
          </CharString>
          <CharString index="257">
            64 327 rlineto
            return
          </CharString>
          <CharString index="258">
            hstem
            75 138 return
          </CharString>
          <CharString index="259">
            2 hlineto
            42 -62 58 callgsubr
            -133 hlineto
            return
          </CharString>
          <CharString index="260">
            142 callgsubr
            23 hhcurveto
            27 16 -15 -22 -28 return
          </CharString>
          <CharString index="261">
            -58 165 97 136 97 hstem
            48 437 vstem
            485 return
          </CharString>
          <CharString index="262">
            rmoveto
            99 callsubr
            42 -36 24 123 callsubr
            return
          </CharString>
          <CharString index="263">
            85 -38 85 hstemhm
            return
          </CharString>
          <CharString index="264">
            -14 45 -60 hhcurveto
            return
          </CharString>
          <CharString index="265">
            820 rmoveto
            -149 hlineto
            -102 -118 rlineto
            112 hlineto
            return
          </CharString>
          <CharString index="266">
            rmoveto
            52 74 callgsubr
            return
          </CharString>
          <CharString index="267">
            128 callsubr
            37 175 return
          </CharString>
          <CharString index="268">
            68 116 callsubr
            -268 hlineto
            endchar
          </CharString>
          <CharString index="269">
            -302 -27 callsubr
            96 -21 return
          </CharString>
          <CharString index="270">
            -13 58 callsubr
            return
          </CharString>
          <CharString index="271">
            hlineto
            -31 -20 -64 -58 -67 vvcurveto
            -49 return
          </CharString>
          <CharString index="272">
            -15 -22 -28 -18 -29 return
          </CharString>
          <CharString index="273">
            hlineto
            -56 -2 callsubr
            return
          </CharString>
          <CharString index="274">
            45 -4 14 173 callsubr
            -25 -6 vhcurveto
            return
          </CharString>
          <CharString index="275">
            hlineto
            8 15 17 51 47 vvcurveto
            103 -43 83 -119 return
          </CharString>
          <CharString index="276">
            -64 callgsubr
            38 hvcurveto
            endchar
          </CharString>
          <CharString index="277" raw="1">
            879e8279 1a750b  
          </CharString>
          <CharString index="278">
            39 50 50 43 -28 32 return
          </CharString>
          <CharString index="279">
            -30 -12 -13 -13 -14 hhcurveto
            return
          </CharString>
          <CharString index="280">
            -9 -15 vvcurveto
            -22 -15 -8 return
          </CharString>
          <CharString index="281">
            41 21 31 36 48 vvcurveto
            59 -47 40 -71 -74 return
          </CharString>
          <CharString index="282">
            -12 110 178 97 166 108 hstemhm
            return
          </CharString>
          <CharString index="283">
            hlineto
            -59 -58 rlineto
            -4 hlineto
            -38 58 rlineto
            -88 hlineto
            return
          </CharString>
          <CharString index="284">
            -74 -50 -34 -15 31 49 97 36 75 50 hvcurveto
            return
          </CharString>
          <CharString index="285">
            50 rmoveto
            106 callgsubr
            -75 hlineto
            -28 return
          </CharString>
          <CharString index="286">
            42 213 rlineto
            29 26 20 13 21 hhcurveto
            19 return
          </CharString>
          <CharString index="287">
            -12 110 208 102 112 115 hstem
            return
          </CharString>
          <CharString index="288">
            22 -39 44 hhcurveto
            hintmask 11110110
            42 return
          </CharString>
          <CharString index="289">
            -52 -38 77 -76 hhcurveto
            -47 -53 return
          </CharString>
          <CharString index="290">
            43 -27 32 195 callsubr
            return
          </CharString>
          <CharString index="291">
            -47 58 hhcurveto
            48 50 46 84 return
          </CharString>
          <CharString index="292">
            vstem
            56 261 rmoveto
            return
          </CharString>
          <CharString index="293">
            -23 -28 -37 hhcurveto
            return
          </CharString>
          <CharString index="294">
            hstemhm
            30 138 return
          </CharString>
          <CharString index="295">
            -13 -16 vvcurveto
            -29 return
          </CharString>
          <CharString index="296">
            690 rmoveto
            83 10 68 33 73 vvcurveto
            42 return
          </CharString>
          <CharString index="297">
            75 callsubr
            hstemhm
            return
          </CharString>
          <CharString index="298">
            80 callgsubr
            0 -20 213 -20 return
          </CharString>
          <CharString index="299">
            -12 112 -79 -21 376 112 70 return
          </CharString>
          <CharString index="300">
            17 30 -18 hvcurveto
            endchar
          </CharString>
          <CharString index="301">
            -47 28 47 -33 return
          </CharString>
          <CharString index="302">
            -43 -58 -40 -52 return
          </CharString>
        <CharString name=".notdef">
          96 0 86 488 86 hstem
          29 635 vstem
          29 hmoveto
          505 hlineto
          130 660 rlineto
          -505 hlineto
          123 -320 rmoveto
          -132 -194 78 387 rlineto
          188 -193 rmoveto
          133 193 -79 -387 rlineto
          -196 26 rmoveto
          59 97 -22 callgsubr
          20 -97 22 -86 rlineto
          -163 hlineto
          149 322 rmoveto
          -4 hlineto
          -22 96 -20 70 rlineto
          152 hlineto
          -45 -70 rlineto
          endchar
        </CharString>
        <CharString name="A">
          -70 callsubr
          hstem
          -62 573 vstem
          215 267 -78 callsubr
        </CharString>
        <CharString name="AE">
          271 0 115 40 107 18 115 142 115 -99 99 hstemhm
          -35 892 hintmask 11101100
          277 262 rmoveto
          63 104 39 63 37 59 40 65 rlinecurve
          3 hlineto
          -58 -291 rlineto
          hintmask 11110100
          433 275 rmoveto
          23 115 rlineto
          -470 hlineto
          -422 -652 rlineto
          154 hlineto
          94 155 rlineto
          167 hlineto
          -31 -155 rlineto
          387 hlineto
          23 115 rlineto
          -251 hlineto
          hintmask 10110100
          35 165 rlineto
          203 hlineto
          23 115 rlineto
          -204 hlineto
          27 142 rlineto
          endchar
        </CharString>
        <CharString name="Aacute">
          -70 callsubr
          50 118 hstem
          -62 598 vstem
          536 820 rmoveto
          -149 hlineto
          -101 -118 rlineto
          112 hlineto
          -183 -435 -104 callgsubr
          endchar
        </CharString>
        <CharString name="Abreve">
          -70 callsubr
          50 69 hstem
          253 73 vstem
          53 callsubr
          -297 -553 -104 callgsubr
          endchar
        </CharString>
        <CharString name="Acircumflex">
          -70 callsubr
          50 118 hstem
          -62 579 67 callgsubr
          -94 -435 -104 callgsubr
          endchar
        </CharString>
        <CharString name="Adieresis">
          -70 callsubr
          49 133 hstem
          212 130 60 131 vstem
          460 701 rmoveto
          42 31 39 37 36 -26 21 -31 -43 69 callsubr
          -191 hmoveto
          55 callgsubr
          -54 -434 -104 callgsubr
          endchar
        </CharString>
        <CharString name="Agrave">
          -70 callsubr
          50 118 hstem
          -62 573 vstem
          425 702 rmoveto
          118 callsubr
          93 -118 rlineto
          -107 -435 -78 callsubr
        </CharString>
        <CharString name="Amacron">
          -70 callsubr
          68 88 hstem
          -62 576 vstem
          514 808 rmoveto
          -268 hlineto
          -17 -88 rlineto
          267 hlineto
          -281 -453 -104 callgsubr
          endchar
        </CharString>
        <CharString name="Aogonek">
          -19 -222 89 154 -21 164 103 280 105 hstem
          299 107 vstem
          215 267 rmoveto
          40 86 31 65 25 62 28 67 rlinecurve
          4 hlineto
          2 -69 3 -61 3 -64 4 -86 rcurveline
          91 385 rmoveto
          14 callsubr
          8 -164 rlineto
          26 hlineto
          -36 -26 -59 -54 -65 vvcurveto
          153 callgsubr
          -11 -7 -2 -9 hhcurveto
          -19 -16 11 21 31 27 40 78 30 hvcurveto
          endchar
        </CharString>
        <CharString name="Aring">
          -70 callsubr
          44 54 88 54 hstem
          269 67 82 67 vstem
          381 838 rmoveto
          24 13 -16 -21 -28 -22 -23 -23 -24 -13 16 21 27 20 24 25 hvcurveto
          -10 -142 rmoveto
          62 52 49 61 58 -49 28 -53 -62 -52 -50 -60 -60 47 -26 55 hvcurveto
          -156 -429 -78 callsubr
        </CharString>
        <CharString name="Atilde">
          -70 callsubr
          49 156 callsubr
          -62 607 hintmask 11110100
          474 831 rmoveto
          -30 -13 -14 -15 -16 hhcurveto
          hintmask 11101100
          -39 122 callgsubr
          -23 hvcurveto
          72 hlineto
          31 12 14 14 16 hhcurveto
          hintmask 11110100
          43 callsubr
          -330 -564 -104 callgsubr
          endchar
        </CharString>
        <CharString name="B">
          37 0 133 callgsubr
          hintmask 11110000
          100 callsubr
          hintmask 11101000
          18 callsubr
          hintmask 11110000
          71 35 -30 -53 -67 -51 -37 -93 hvcurveto
          endchar
        </CharString>
        <CharString name="C">
          0 -42 callsubr
          174 callgsubr
          -91 callgsubr
          endchar
        </CharString>
        <CharString name="Cacute">
          0 -42 callsubr
          38 118 174 callgsubr
          -91 callgsubr
          298 441 -49 callsubr
        </CharString>
        <CharString name="Ccaron">
          0 -42 callsubr
          38 118 174 callgsubr
          -91 callgsubr
          553 559 rmoveto
          -68 callgsubr
          133 hlineto
          endchar
        </CharString>
        <CharString name="Ccedilla">
          0 -220 55 180 -21 551 119 174 callgsubr
          48 101 vstem
          444 156 rmoveto
          -29 -34 -38 -21 -39 hhcurveto
          -96 -40 63 101 145 88 130 111 36 27 -19 -38 24 hvcurveto
          94 72 rlineto
          65 -37 -61 39 -76 hhcurveto
          -195 27 callgsubr
          -148 72 -96 117 -23 hvcurveto
          -47 -70 rlineto
          37 -10 10 188 callsubr
          -41 -16 -49 -5 vhcurveto
          4 -55 rlineto
          98 78 callgsubr
          -18 17 -26 10 vhcurveto
          21 34 80 5 62 41 36 33 rlinecurve
          endchar
        </CharString>
        <CharString name="Ccircumflex">
          0 -42 callsubr
          38 118 174 callgsubr
          -91 callgsubr
          213 441 rmoveto
          109 8 callsubr
        </CharString>
        <CharString name="Cdotaccent">
          0 -42 callsubr
          39 147 174 callgsubr
          165 160 -91 callgsubr
          380 98 callsubr
        </CharString>
        <CharString name="D">
          49 0 110 432 110 hstem
          450 -76 callgsubr
          endchar
        </CharString>
        <CharString name="Dcaron">
          49 0 110 432 110 50 118 hstem
          450 -76 callgsubr
          341 710 rmoveto
          -68 callgsubr
          132 hlineto
          endchar
        </CharString>
        <CharString name="Dcroat">
          -41 callsubr
        </CharString>
        <CharString name="E">
          -40 0 -79 callsubr
          hstem
          28 517 vstem
          -104 callsubr
          endchar
        </CharString>
        <CharString name="Eacute">
          -40 0 -79 callsubr
          50 118 hstem
          28 517 vstem
          -104 callsubr
          130 50 -12 callgsubr
          -149 hlineto
          endchar
        </CharString>
        <CharString name="Ebreve">
          -40 0 -79 callsubr
          50 69 hstem
          256 73 vstem
          -104 callsubr
          203 52 callgsubr
        </CharString>
        <CharString name="Ecaron">
          -40 0 -79 callsubr
          50 118 hstem
          28 517 vstem
          -104 callsubr
          385 168 rmoveto
          -110 hlineto
          -63 -63 rlineto
          -3 hlineto
          -41 63 rlineto
          -100 hlineto
          69 -118 rlineto
          132 hlineto
          endchar
        </CharString>
        <CharString name="Ecircumflex">
          -40 0 -79 callsubr
          50 118 hstem
          28 517 vstem
          -104 callsubr
          44 50 -34 callsubr
          -133 hlineto
          endchar
        </CharString>
        <CharString name="Edieresis">
          -40 0 -79 callsubr
          49 133 hstem
          215 148 callsubr
          vstem
          -104 callsubr
          113 49 rmoveto
          43 31 39 37 36 -27 -14 callsubr
          191 hmoveto
          42 31 39 37 36 -26 21 -31 -43 -30 -39 -36 -36 24 -22 33 hvcurveto
          endchar
        </CharString>
        <CharString name="Edotaccent">
          -40 0 -79 callsubr
          51 147 hstem
          297 159 vstem
          -104 callsubr
          212 51 rmoveto
          47 38 34 47 42 -36 24 -38 -55 callgsubr
        </CharString>
        <CharString name="Egrave">
          -40 0 -79 callsubr
          50 118 hstem
          28 517 vstem
          -104 callsubr
          166 50 22 callgsubr
        </CharString>
        <CharString name="Emacron">
          -40 0 -79 callsubr
          68 88 hstem
          28 517 vstem
          -104 callsubr
          73 161 callsubr
        </CharString>
        <CharString name="Eogonek">
          -40 -222 89 133 -79 callsubr
          hstem
          217 107 vstem
          28 hmoveto
          284 164 callsubr
          37 31 callgsubr
          32 40 60 61 9 hvcurveto
          22 115 rlineto
          -259 hlineto
          34 165 -46 callgsubr
          -213 hlineto
          28 142 rlineto
          251 -83 callsubr
          -386 hlineto
          endchar
        </CharString>
        <CharString name="Eth">
          -41 callsubr
        </CharString>
        <CharString name="Euro">
          -58 -12 110 126 70 54 71 126 110 hstem
          78 138 vstem
          375 224 rmoveto
          14 70 rlineto
          -172 hlineto
          1 19 3 18 3 17 rrcurveto
          214 hlineto
          14 71 rlineto
          -209 hlineto
          75 28 49 51 64 hhcurveto
          32 19 -19 -33 16 hvcurveto
          98 65 rlineto
          56 -33 -44 41 -74 hhcurveto
          -128 -113 -91 -147 -51 hvcurveto
          -51 -4 -14 -65 rlineto
          47 hlineto
          -4 -18 -2 -18 -2 -19 -50 -4 rcurveline
          -14 -65 rlineto
          62 hlineto
          -152 6 78 -84 126 hhcurveto
          57 63 21 56 64 hvcurveto
          -64 81 rlineto
          -28 -28 -31 -20 -33 hhcurveto
          -60 -35 45 81 -5 hvcurveto
          endchar
        </CharString>
        <CharString name="F">
          -63 21 -21 262 115 160 115 hstem
          28 517 76 callsubr
          52 262 -46 callgsubr
          -212 hlineto
          31 160 rlineto
          251 -83 callsubr
          -386 hlineto
          endchar
        </CharString>
        <CharString name="G">
          -5 callsubr
          174 callgsubr
          vstem
          -102 callsubr
          endchar
        </CharString>
        <CharString name="Gbreve">
          -5 callsubr
          38 69 174 callgsubr
          119 73 vstem
          -102 callsubr
          366 441 rmoveto
          86 45 48 70 23 hvcurveto
          -75 hlineto
          -28 -11 -21 -21 -34 24 callgsubr
        </CharString>
        <CharString name="Gcaron">
          -5 callsubr
          38 118 174 callgsubr
          vstem
          -102 callsubr
          548 559 rmoveto
          -68 callgsubr
          133 hlineto
          endchar
        </CharString>
        <CharString name="Gcircumflex">
          -5 callsubr
          38 118 174 callgsubr
          vstem
          -102 callsubr
          208 441 rmoveto
          109 8 callsubr
        </CharString>
        <CharString name="Gdotaccent">
          -5 callsubr
          39 147 174 callgsubr
          160 160 vstem
          -102 callsubr
          375 98 callsubr
        </CharString>
        <CharString name="H">
          85 21 -21 279 120 253 -20 hstem
          28 626 -35 callsubr
          endchar
        </CharString>
        <CharString name="Hbar">
          91 21 -21 279 120 90 64.5 -64.5 68 -68 163 hstemhm
          31 701 hintmask 11001100
          469 399 rmoveto
          -222 hlineto
          18 90 rlineto
          222 hlineto
          hintmask 11010100
          245 68 rmoveto
          -95 hlineto
          hintmask 11001100
          19 95 -91 callsubr
          hintmask 11010100
          -19 -95 rlineto
          -221 hlineto
          hintmask 11001100
          19 95 -91 callsubr
          hintmask 11100100
          -19 -96 -59 -5 rlineto
          hintmask 11001100
          -13 -62 rlineto
          59 hlineto
          -98 -489 -29 callgsubr
          55 279 rlineto
          222 hlineto
          -56 -279 -29 callgsubr
          98 489 rlineto
          95 hlineto
          endchar
        </CharString>
        <CharString name="Hcircumflex">
          85 21 -21 279 120 253 -20 70 118 hstem
          28 626 -35 callsubr
          82 50 rmoveto
          109 8 callsubr
        </CharString>
        <CharString name="I">
          45 callgsubr
          hstem
          28 268 -59 callsubr
          endchar
        </CharString>
        <CharString name="I.a">
          -201 -17 callgsubr
          hstem
          -6 407 vstem
          -96 callgsubr
          endchar
        </CharString>
        <CharString name="Iacute">
          45 callgsubr
          70 118 hstem
          28 374 -59 callsubr
          -7 50 -49 callsubr
        </CharString>
        <CharString name="Iacute.a">
          85 callgsubr
          444 vstem
          -96 callgsubr
          169 587 rmoveto
          112 hlineto
          139 -2 callsubr
          -149 hlineto
          endchar
        </CharString>
        <CharString name="Icircumflex">
          45 callgsubr
          70 118 hstem
          28 355 -59 callsubr
          -93 50 -34 callsubr
          -132 hlineto
          endchar
        </CharString>
        <CharString name="Icircumflex.a">
          85 callgsubr
          425 vstem
          -96 callgsubr
          84 587 104 callsubr
          41 -63 rlineto
          101 193 callgsubr
        </CharString>
        <CharString name="Idieresis">
          45 callgsubr
          69 133 hstem
          78 148 callsubr
          -59 callsubr
          -23 49 rmoveto
          42 31 39 37 36 -27 2 callsubr
          33 hvcurveto
          190 hmoveto
          42 31 -44 callgsubr
          endchar
        </CharString>
        <CharString name="Idieresis.a">
          -201 -17 callgsubr
          49 133 hstem
          114 130 60 131 vstem
          -96 callgsubr
          153 586 29 callgsubr
        </CharString>
        <CharString name="Idotaccent">
          45 callgsubr
          71 147 hstem
          160 159 -59 callsubr
          75 51 155 callsubr
          36 -22 38 hvcurveto
          endchar
        </CharString>
        <CharString name="Idotaccent.a">
          -201 -17 callgsubr
          51 147 hstem
          195 160 vstem
          -96 callgsubr
          252 588 110 callsubr
        </CharString>
        <CharString name="Igrave">
          45 callgsubr
          70 118 hstem
          28 268 -59 callsubr
          29 50 22 callgsubr
        </CharString>
        <CharString name="Igrave.a">
          85 callgsubr
          407 vstem
          -96 callgsubr
          205 587 rmoveto
          104 hlineto
          118 callsubr
          endchar
        </CharString>
        <CharString name="Imacron">
          45 callgsubr
          88 88 hstem
          28 352 -59 callsubr
          -64 161 callsubr
        </CharString>
        <CharString name="Imacron.a">
          -201 -17 callgsubr
          68 88 hstem
          -6 422 vstem
          -96 callgsubr
          113 605 56 callsubr
          endchar
        </CharString>
        <CharString name="Iogonek">
          -273 -222 89 154 82 callsubr
          hstem
          -35 107 vstem
          72 -101 rmoveto
          31 31 46 63 24 vhcurveto
          -42 callgsubr
          -131 -652 rlineto
          32 164 callsubr
          37 -28 55 113 callsubr
          hvcurveto
          endchar
        </CharString>
        <CharString name="Iogonek.a">
          -201 -222 89 133 115 422 115 hstem
          0 107 vstem
          -6 hmoveto
          101 164 callsubr
          38 -28 54 113 callsubr
          31 31 46 63 24 hvcurveto
          70 hlineto
          24 115 rlineto
          -72 hlineto
          86 422 rlineto
          68 hlineto
          24 115 rlineto
          -275 hlineto
          -24 -115 rlineto
          69 hlineto
          -85 -422 rlineto
          -68 hlineto
          endchar
        </CharString>
        <CharString name="Itilde">
          45 callgsubr
          69 156 callsubr
          28 384 hintmask 11101000
          -61 callgsubr
          hintmask 11011000
          -24 51 rmoveto
          31 13 14 14 15 hhcurveto
          hintmask 11101000
          40 16 31 callsubr
          -13 -13 -15 -16 hhcurveto
          hintmask 11011000
          55 callsubr
        </CharString>
        <CharString name="Itilde.a">
          -201 -17 callgsubr
          49 156 callsubr
          -6 453 hintmask 11011000
          -96 callgsubr
          153 588 rmoveto
          31 12 14 14 16 hhcurveto
          hintmask 11101000
          43 callsubr
          -71 hlineto
          -30 -13 -14 -15 -16 hhcurveto
          hintmask 11011000
          162 callgsubr
        </CharString>
        <CharString name="J">
          -76 -39 callgsubr
          hstem
          -8 506 18 callgsubr
          endchar
        </CharString>
        <CharString name="Jcircumflex">
          -76 -39 callgsubr
          70 118 hstem
          -8 591 18 callgsubr
          -142 499 rmoveto
          110 8 callsubr
        </CharString>
        <CharString name="K">
          37 0 callgsubr
          hstem
          28 613 20 callsubr
          endchar
        </CharString>
        <CharString name="L">
          -67 0 166 callgsubr
          83 callsubr
          endchar
        </CharString>
        <CharString name="Lacute">
          -67 0 166 callgsubr
          70 118 83 callsubr
          8 50 -12 callgsubr
          -149 hlineto
          endchar
        </CharString>
        <CharString name="Lcaron">
          -67 0 115 393 144 -144 222 hstemhm
          28 489 hintmask 11010000
          -59 callgsubr
          291 -144 rmoveto
          hintmask 10110000
          53 152 14 70 rlineto
          -87 hlineto
          hintmask 11010000
          -40 -222 rlineto
          endchar
        </CharString>
        <CharString name="Ldot">
          -67 0 115 124 175 238 -20 hstemhm
          28 470 -168 168 hintmask 11110000
          -59 callgsubr
          hintmask 11101000
          242 -413 rmoveto
          58 39 50 50 183 callsubr
          -48 -44 28 -31 43 hvcurveto
          endchar
        </CharString>
        <CharString name="Lslash">
          -67 0 166 callgsubr
          hstem
          -7 442 vstem
          188 115 rmoveto
          32 158 187 95 22 114 -186 -95 53 265 -91 callsubr
          -67 -335 -76 -38 -23 -114 76 38 -41 -203 rlineto
          45 callsubr
          endchar
        </CharString>
        <CharString name="M">
          173 21 -21 477 175 0 -20 hstemhm
          28 714 hintmask 10110000
          28 hmoveto
          126 hlineto
          52 259 rlineto
          hintmask 11010000
          -20 callgsubr
          endchar
        </CharString>
        <CharString name="N">
          76 0 102 callgsubr
          28 616 hintmask 01011000
          28 hmoveto
          131 hlineto
          50 250 rlineto
          hintmask 01101000
          -88 callgsubr
          hintmask 10011000
          -15 -75 -5 -93 -7 -68 rrcurveto
          -4 hlineto
          -35 143 -106 340 111 callsubr
        </CharString>
        <CharString name="Nacute">
          76 0 -14 callgsubr
          70 118 hstemhm
          28 616 -71 callgsubr
          179 50 -12 callgsubr
          -149 hlineto
          endchar
        </CharString>
        <CharString name="Ncaron">
          76 0 -14 callgsubr
          70 118 hstemhm
          28 616 -71 callgsubr
          433 168 rmoveto
          19 callsubr
          133 hlineto
          endchar
        </CharString>
        <CharString name="Ntilde">
          76 0 -14 callgsubr
          69 156 callsubr
          28 616 hintmask 01010110
          28 hmoveto
          131 hlineto
          50 250 rlineto
          hintmask 01100110
          -88 callgsubr
          hintmask 10010110
          -15 -75 -5 -93 -7 -68 rrcurveto
          -4 hlineto
          -35 143 -106 340 134 callgsubr
          162 51 rmoveto
          31 12 14 14 16 hhcurveto
          hintmask 01011010
          43 callsubr
          -71 hlineto
          -30 -13 -14 -15 -16 hhcurveto
          hintmask 01010110
          -39 122 callgsubr
          -23 hvcurveto
          endchar
        </CharString>
        <CharString name="O">
          -65 callgsubr
          hstem
          25 callsubr
          vstem
          -106 callsubr
          endchar
        </CharString>
        <CharString name="OE">
          266 0 110 -110 -79 callsubr
          -110 110 195 callgsubr
          hintmask 01110100
          57 256 rmoveto
          -172 106 -84 182 vhcurveto
          386 hlineto
          23 115 rlineto
          -247 hlineto
          34 165 rlineto
          200 hlineto
          23 115 rlineto
          -201 hlineto
          28 142 rlineto
          238 hlineto
          23 115 rlineto
          -436 hlineto
          -209 -150 -139 -257 hvcurveto
          hintmask 10101100
          399 286 rmoveto
          -86 -432 rlineto
          -21 hlineto
          -92 -60 47 108 190 96 87 126 hvcurveto
          endchar
        </CharString>
        <CharString name="Oacute">
          -11 callgsubr
          118 hstem
          25 callsubr
          vstem
          -106 callsubr
          -41 157 -49 callsubr
        </CharString>
        <CharString name="Ocircumflex">
          -11 callgsubr
          118 hstem
          25 callsubr
          vstem
          -106 callsubr
          -127 157 -34 callsubr
          -132 hlineto
          endchar
        </CharString>
        <CharString name="Odieresis">
          -65 callgsubr
          37 133 195 callgsubr
          70 148 callsubr
          -95 140 hintmask 11111010
          -106 callsubr
          -57 156 48 callgsubr
          hintmask 11111100
          190 hmoveto
          55 callgsubr
          endchar
        </CharString>
        <CharString name="Ograve">
          -11 callgsubr
          118 hstem
          25 callsubr
          vstem
          -106 callsubr
          -5 157 22 callgsubr
        </CharString>
        <CharString name="Ohorn">
          -65 callgsubr
          16 callsubr
          -42 108 hintmask 11110000
          309 106 -34 callgsubr
          hintmask 11101000
          -86 callsubr
          hintmask 11110000
          -5 callgsubr
          hintmask 11101000
          1 callsubr
        </CharString>
        <CharString name="Ohungarumlaut">
          -11 callgsubr
          119 hstem
          25 callsubr
          vstem
          -106 callsubr
          -97 157 12 callgsubr
        </CharString>
        <CharString name="Omacron">
          -65 callgsubr
          56 88 hstem
          25 callsubr
          vstem
          -106 callsubr
          -98 175 116 callsubr
          -267 hlineto
          endchar
        </CharString>
        <CharString name="Oslash">
          -65 callgsubr
          0 -20 16 callsubr
          hintmask 11011000
          491 415 rmoveto
          1 -12 1 -11 -13 vvcurveto
          -151 -91 -122 -93 -33 -27 14 24 -19 vhcurveto
          -31 88 rmoveto
          -1 13 -1 14 14 vvcurveto
          151 92 121 93 35 27 -15 -26 19 vhcurveto
          hintmask 10111000
          248 138 rmoveto
          hintmask 11011000
          -60 56 -94 -97 rlineto
          41 -42 -58 22 -69 hhcurveto
          -176 -155 -170 -230 -58 11 -49 19 -41 hvcurveto
          -97 -100 62 -56 85 88 rlineto
          -39 41 57 -21 67 hhcurveto
          177 154 170 230 56 -10 48 -18 40 hvcurveto
          endchar
        </CharString>
        <CharString name="Otilde">
          -65 callgsubr
          37 85 -38 85 16 callsubr
          hintmask 11101100
          -106 callsubr
          hintmask 11011100
          -58 158 117 callsubr
          hintmask 11101100
          39 16 -7 callgsubr
          hintmask 11011100
          161 callgsubr
        </CharString>
        <CharString name="P">
          16 21 -21 226 109 208 109 hstem
          453 135 76 callsubr
          44 226 rlineto
          77 hlineto
          165 136 71 182 125 -96 48 -127 hvcurveto
          -206 hlineto
          74 -317 rmoveto
          40 208 rlineto
          70 hlineto
          70 40 -26 -58 -82 -54 -42 -97 hvcurveto
          endchar
        </CharString>
        <CharString name="Q">
          93 -176 110 80 -21 552 119 hstem
          25 callsubr
          vstem
          382 545 rmoveto
          72 39 -62 -104 -151 -91 -122 -93 -72 -40 63 104 151 92 121 93 hvcurveto
          175 -602 rmoveto
          -5 -21 -19 -4 -26 hhcurveto
          -55 -54 18 41 -27 hvcurveto
          154 30 124 158 207 vvcurveto
          152 callgsubr
          -135 58 -92 95 -34 vhcurveto
          -121 47 92 -58 134 hhcurveto
          23 34 7 9 23 hvcurveto
          endchar
        </CharString>
        <CharString name="R">
          29 21 128 callgsubr
          451 135 vstem
          235 348 -97 callgsubr
        </CharString>
        <CharString name="Racute">
          29 21 32 callgsubr
          50 118 hstem
          451 135 vstem
          555 820 rmoveto
          -148 hlineto
          -102 -118 rlineto
          112 hlineto
          -182 -354 -97 callgsubr
        </CharString>
        <CharString name="Rcaron">
          29 21 32 callgsubr
          50 118 hstem
          451 135 vstem
          445 702 rmoveto
          115 -2 callsubr
          -68 callgsubr
          -77 -354 -97 callgsubr
        </CharString>
        <CharString name="S">
          95 callgsubr
          hstem
          107 140 95 142 vstem
          -101 callsubr
          endchar
        </CharString>
        <CharString name="Sacute">
          95 callgsubr
          44 118 hstem
          107 140 95 142 vstem
          -101 callsubr
          180 521 -49 callsubr
        </CharString>
        <CharString name="Scaron">
          95 callgsubr
          44 118 hstem
          107 140 95 142 vstem
          -101 callsubr
          435 639 rmoveto
          -109 hlineto
          -64 -62 rlineto
          -2 hlineto
          -41 62 rlineto
          -101 hlineto
          69 -118 rlineto
          133 hlineto
          endchar
        </CharString>
        <CharString name="Scircumflex">
          95 callgsubr
          44 118 hstem
          107 140 95 142 vstem
          -101 callsubr
          95 521 157 callgsubr
          63 63 rlineto
          3 hlineto
          41 -63 rlineto
          101 193 callgsubr
        </CharString>
        <CharString name="T">
          -35 21 -21 536 116 hstem
          84 502 -53 callsubr
          endchar
        </CharString>
        <CharString name="Tcaron">
          -35 21 -21 536 116 50 118 hstem
          84 502 -53 callsubr
          272 284 rmoveto
          19 callsubr
          133 hlineto
          endchar
        </CharString>
        <CharString name="Thorn">
          28 21 -21 130 109 208 109 104 -20 hstem
          436 136 vstem
          28 hmoveto
          136 hlineto
          26 130 rlineto
          80 hlineto
          163 139 71 182 125 -90 48 -119 hvcurveto
          -88 hlineto
          21 104 -91 callsubr
          53 -421 rmoveto
          41 208 rlineto
          81 hlineto
          65 37 -26 -58 -82 -54 -42 -99 hvcurveto
          endchar
        </CharString>
        <CharString name="U">
          17 callsubr
          151 callsubr
          vstem
          -105 callsubr
          endchar
        </CharString>
        <CharString name="Uacute">
          17 callsubr
          70 118 151 callsubr
          vstem
          -105 callsubr
          179 50 -49 callsubr
        </CharString>
        <CharString name="Ubreve">
          17 callsubr
          70 69 151 callsubr
          88 73 vstem
          -105 callsubr
          252 50 -1 callsubr
        </CharString>
        <CharString name="Ucircumflex">
          17 callsubr
          70 118 151 callsubr
          vstem
          -105 callsubr
          93 50 -34 callsubr
          -132 hlineto
          endchar
        </CharString>
        <CharString name="Udieresis">
          17 callsubr
          69 133 151 callsubr
          47 148 callsubr
          vstem
          -105 callsubr
          163 49 48 callgsubr
          190 hmoveto
          55 callgsubr
          endchar
        </CharString>
        <CharString name="Ugrave">
          17 callsubr
          70 118 151 callsubr
          vstem
          -105 callsubr
          215 50 22 callgsubr
        </CharString>
        <CharString name="Uhorn">
          99 -39 callgsubr
          151 callsubr
          460 107 vstem
          666 759 -95 callgsubr
        </CharString>
        <CharString name="Uhungarumlaut">
          17 callsubr
          70 119 151 callsubr
          vstem
          -105 callsubr
          123 50 12 callgsubr
        </CharString>
        <CharString name="Umacron">
          17 callsubr
          88 88 151 callsubr
          vstem
          -105 callsubr
          122 68 116 callsubr
          -267 hlineto
          endchar
        </CharString>
        <CharString name="Uogonek">
          76 -222 89 147 -21 659 -20 hstemhm
          75 138 -52 108 hintmask 11110000
          649 652 rmoveto
          -134 -100 callgsubr
          -67 -332 rlineto
          -6 -34 -7 -42 -29 vvcurveto
          -131 60 -73 113 -18 vhcurveto
          hintmask 11101000
          -36 -26 -51 -55 -57 vvcurveto
          -49 38 31 callgsubr
          30 28 40 70 25 hvcurveto
          113 41 61 68 32 173 rrcurveto
          endchar
        </CharString>
        <CharString name="Uring">
          17 callsubr
          64 54 88 54 151 callsubr
          105 66 82 67 vstem
          -105 callsubr
          264 44 27 callsubr
        </CharString>
        <CharString name="Utilde">
          17 callsubr
          69 156 callsubr
          75 138 hintmask 11101000
          -105 callsubr
          hintmask 11011000
          162 51 117 callsubr
          hintmask 11101000
          39 16 -7 callgsubr
          hintmask 11011000
          55 callsubr
        </CharString>
        <CharString name="V">
          -13 0 122 530 -20 hstem
          79 558 vstem
          134 hmoveto
          166 hlineto
          337 652 rlineto
          -151 hlineto
          -145 -321 -31 -69 -30 -70 -30 -70 rlinecurve
          -4 hlineto
          -1 70 -3 70 -3 69 -17 321 rcurveline
          -143 hlineto
          endchar
        </CharString>
        <CharString name="W">
          44 callsubr
          39 callsubr
          hintmask 10111000
          56 callgsubr
          hintmask 11011000
          -95 callsubr
          endchar
        </CharString>
        <CharString name="Wacute">
          44 callsubr
          70 118 39 callsubr
          hintmask 10111100
          56 callgsubr
          hintmask 11011100
          -95 callsubr
          302 50 rmoveto
          113 -21 callsubr
          -149 hlineto
          endchar
        </CharString>
        <CharString name="Wcircumflex">
          44 callsubr
          70 118 39 callsubr
          hintmask 10111100
          56 callgsubr
          hintmask 11011100
          -95 callsubr
          217 50 104 callsubr
          42 -63 rlineto
          100 193 callgsubr
        </CharString>
        <CharString name="Wdieresis">
          44 callsubr
          69 133 hstemhm
          88.5 141 99.5 130 -30 104 -14 131 hintmask 10111010
          56 callgsubr
          hintmask 11011010
          -95 callsubr
          hintmask 10111101
          286 49 29 callgsubr
        </CharString>
        <CharString name="Wgrave">
          44 callsubr
          70 118 39 callsubr
          hintmask 10111100
          56 callgsubr
          hintmask 11011100
          -95 callsubr
          338 50 rmoveto
          104 hlineto
          118 callsubr
          endchar
        </CharString>
        <CharString name="X">
          -14 0 callgsubr
          hstem
          -36 640 vstem
          -36 hmoveto
          146 hlineto
          90 141 21 34 21 34 23 38 rlinecurve
          4 hlineto
          9 -38 8 -33 9 -34 37 -142 rcurveline
          152 hlineto
          -109 330 229 322 rlineto
          -146 hlineto
          -79 -130 -18 -30 -22 -35 -22 -38 rlinecurve
          -4 hlineto
          -9 39 -7 33 -7 30 -33 131 rcurveline
          -152 hlineto
          101 -316 rlineto
          endchar
        </CharString>
        <CharString name="Y">
          146 callgsubr
          hstem
          80 517 vstem
          -97 callsubr
          endchar
        </CharString>
        <CharString name="Yacute">
          146 callgsubr
          70 118 hstem
          80 517 vstem
          -97 callsubr
          74 466 -49 callsubr
        </CharString>
        <CharString name="Ycircumflex">
          146 callgsubr
          70 118 hstem
          80 517 vstem
          -97 callsubr
          -12 466 rmoveto
          110 hlineto
          63 63 rlineto
          3 hlineto
          41 -63 rlineto
          100 hlineto
          -68 53 callgsubr
        </CharString>
        <CharString name="Ydieresis">
          146 callgsubr
          69 133 hstem
          184 148 callsubr
          vstem
          -97 callsubr
          58 465 48 callgsubr
          190 hmoveto
          55 callgsubr
          endchar
        </CharString>
        <CharString name="Ygrave">
          146 callgsubr
          70 118 hstem
          80 517 vstem
          -97 callsubr
          110 466 22 callgsubr
        </CharString>
        <CharString name="Z">
          -42 -17 callgsubr
          hstem
          -5 561 -73 callsubr
          endchar
        </CharString>
        <CharString name="Zacute">
          -42 -17 callgsubr
          50 118 hstem
          -5 561 -73 callsubr
          264 620 -49 callsubr
        </CharString>
        <CharString name="Zcaron">
          -42 -17 callgsubr
          50 118 hstem
          -5 561 -73 callsubr
          519 738 rmoveto
          -68 callgsubr
          133 hlineto
          endchar
        </CharString>
        <CharString name="Zdotaccent">
          -42 -17 callgsubr
          51 147 hstem
          285 160 -73 callsubr
          346 621 94 callgsubr
          -87 callgsubr
        </CharString>
        <CharString name="a">
          -88 callsubr
          4 callsubr
          hintmask 01101000
          83 callgsubr
          hintmask 10101000
          -93 callsubr
          hintmask 01011000
          -92 callsubr
          hintmask 01101000
          -99 callgsubr
          hintmask 10101000
          -103 callgsubr
          endchar
        </CharString>
        <CharString name="a.a">
          -85 callgsubr
          -23 callgsubr
          hintmask 00111110
          86 callgsubr
          hintmask 01011110
          -89 callgsubr
          hintmask 00111110
          -106 callgsubr
          hintmask 10011110
          -92 callgsubr
          hintmask 00111110
          -40 callsubr
          endchar
        </CharString>
        <CharString name="a.supa">
          191 callgsubr
          54 93 110 96 vstem
          54 336 rmoveto
          -50 36 -32 47 34 36 134 callsubr
          3 18 3 81 callgsubr
          hvcurveto
          -3 -1 -3 -5 vvcurveto
          -113 -4 -89 175 callgsubr
          -17 -16 -12 -20 hhcurveto
          -20 -13 11 18 31 31 22 67 2 hvcurveto
          endchar
        </CharString>
        <CharString name="a.sups">
          -37 callgsubr
        </CharString>
        <CharString name="aacute">
          -88 callsubr
          97 149 4 callsubr
          -103 callsubr
          18 473 99 callgsubr
        </CharString>
        <CharString name="aacute.a">
          -85 callgsubr
          65 149 -23 callgsubr
          hintmask 00111111
          86 callgsubr
          hintmask 01011111
          -89 callgsubr
          hintmask 00111111
          -106 callgsubr
          hintmask 10011111
          -92 callgsubr
          hintmask 00111111
          -40 callsubr
          -83 346 -62 callsubr
        </CharString>
        <CharString name="abreve">
          -88 callsubr
          98 74 -74 137 4 callsubr
          50 77 hintmask 01100111
          83 callgsubr
          hintmask 10100111
          -93 callsubr
          hintmask 01010111
          -92 callsubr
          hintmask 01100111
          -99 callgsubr
          hintmask 10100111
          -103 callgsubr
          100 474 rmoveto
          89 147 callsubr
          -76 hlineto
          hintmask 01101011
          -35 -12 186 callsubr
          hintmask 01100111
          -37 -11 130 callsubr
          -74 hlineto
          hintmask 10100111
          -71 -13 32 -66 86 hhcurveto
          endchar
        </CharString>
        <CharString name="abreve.a">
          -85 callgsubr
          66 74 -74 137 hstemhm
          22 133 48 76 51 135 hintmask 0011101111000000
          86 callgsubr
          hintmask 0101101111000000
          -89 callgsubr
          hintmask 0011101111000000
          -106 callgsubr
          hintmask 1001101111000000
          -92 callgsubr
          hintmask 0011101111000000
          -40 callsubr
          -1 347 32 callsubr
          hintmask 0011110111000000
          145 callsubr
          hintmask 0011101111000000
          -37 -61 callsubr
          endchar
        </CharString>
        <CharString name="acircumflex">
          -88 callsubr
          97 149 4 callsubr
          -103 callsubr
          -46 473 -67 callsubr
          endchar
        </CharString>
        <CharString name="acircumflex.a">
          -85 callgsubr
          65 149 -23 callgsubr
          hintmask 00111111
          86 callgsubr
          hintmask 01011111
          -89 callgsubr
          hintmask 00111111
          -106 callgsubr
          hintmask 10011111
          -92 callgsubr
          hintmask 00111111
          -40 callsubr
          -146 346 101 callsubr
        </CharString>
        <CharString name="acute">
          -33 79 callsubr
          249 253 vstem
          249 573 -62 callsubr
        </CharString>
        <CharString name="adieresis">
          -88 callsubr
          96 134 4 callsubr
          8 134 57 134 -103 callsubr
          hintmask 01101111
          9 472 -29 callsubr
        </CharString>
        <CharString name="adieresis.a">
          -85 callgsubr
          64 134 hstemhm
          22 133 6 134 35 135 -114 134 hintmask 0011111010000000
          86 callgsubr
          hintmask 0101111010000000
          -89 callgsubr
          hintmask 0011111010000000
          -106 callgsubr
          hintmask 1001111010000000
          -92 callgsubr
          hintmask 0011111010000000
          -40 callsubr
          hintmask 0011110101000000
          -91 345 -28 callgsubr
        </CharString>
        <CharString name="ae">
          187 -12 103 118 84 -66 83 93 105 hstemhm
          22 133 153 120 185 112 hintmask 10111110
          86 callgsubr
          -76 58 -48 75 72 57 30 51 59 vhcurveto
          -45 27 60 -36 70 hhcurveto
          72 59 24 28 38 hvcurveto
          -49 86 rlineto
          -17 -24 -36 -18 -30 hhcurveto
          hintmask 11011110
          -64 -44 40 78 6 hvcurveto
          272 168 callsubr
          -51 -53 -24 -43 -43 vhcurveto
          46 -21 -43 21 -58 hhcurveto
          -66 -67 -21 -29 -58 hvcurveto
          30 -95 rlineto
          23 47 42 15 38 hhcurveto
          44 23 -21 -49 hvcurveto
          hintmask 10111110
          -7 0 -6 -1 -8 vhcurveto
          -169 -4 -135 -49 -145 vvcurveto
          hintmask 11011110
          417 181 rmoveto
          73 21 45 37 41 hhcurveto
          50 17 -33 -40 -14 -2 -8 -2 -15 hvcurveto
          hintmask 10111110
          -301 -66 rmoveto
          -3 -29 1 -22 3 -24 rrcurveto
          -40 -34 -36 -19 -29 hhcurveto
          -32 -23 17 29 50 49 35 104 3 hvcurveto
          endchar
        </CharString>
        <CharString name="agrave">
          -88 callsubr
          97 149 4 callsubr
          -103 callsubr
          79 473 68 callsubr
        </CharString>
        <CharString name="agrave.a">
          -85 callgsubr
          65 149 -23 callgsubr
          hintmask 00111111
          86 callgsubr
          hintmask 01011111
          -89 callgsubr
          hintmask 00111111
          -106 callgsubr
          hintmask 10011111
          -92 callgsubr
          hintmask 00111111
          -40 callsubr
          -22 346 rmoveto
          95 69 callgsubr
        </CharString>
        <CharString name="amacron">
          -88 callsubr
          117 87 4 callsubr
          -103 callsubr
          -28 493 -82 callgsubr
          endchar
        </CharString>
        <CharString name="amacron.a">
          -85 callgsubr
          85 87 -23 callgsubr
          hintmask 00111111
          86 callgsubr
          hintmask 01011111
          -89 callgsubr
          hintmask 00111111
          -106 callgsubr
          hintmask 10011111
          -92 callgsubr
          hintmask 00111111
          -40 callsubr
          -129 366 -82 callgsubr
          endchar
        </CharString>
        <CharString name="ampersand">
          66 -12 103 482 91 hstemhm
          14 133 -1 114 112 106 hintmask 11101000
          147 165 rmoveto
          39 25 30 37 29 vhcurveto
          29 -53 38 -50 42 -43 rrcurveto
          -17 -31 -33 -9 -30 hhcurveto
          -48 -29 31 43 hvcurveto
          hintmask 11011000
          113 308 rmoveto
          62 36 38 40 24 12 -15 -24 -54 -45 -34 -59 -32 vhcurveto
          -5 20 -3 20 19 vvcurveto
          254 -106 rmoveto
          -26 -64 -33 -55 -44 -50 -40 37 -37 44 -27 47 rrcurveto
          85 51 86 57 99 vvcurveto
          79 -47 52 -87 -110 -88 -88 -107 -35 7 -37 12 -37 vhcurveto
          hintmask 11101000
          -79 -45 -72 -58 -107 vvcurveto
          -96 69 -66 117 74 66 22 40 57 vhcurveto
          44 -30 47 -22 45 -10 54 108 rcurveline
          -27 7 -35 13 -34 21 62 69 47 79 38 82 rrcurveto
          endchar
        </CharString>
        <CharString name="aogonek">
          -15 -210 82 116 112 296 112 -12 -20 4 callsubr
          60 99 hintmask 11101100
          83 callgsubr
          -117 53 -65 87 52 59 30 47 45 vhcurveto
          2 hlineto
          -2 -63 rlineto
          -33 -23 -61 -51 -65 vvcurveto
          -56 callsubr
          41 41 37 65 20 hvcurveto
          hintmask 11011100
          99 496 rlineto
          -109 hlineto
          hintmask 11101100
          -22 -53 rlineto
          -2 hlineto
          39 -19 -44 26 44 callgsubr
          200 -70 rmoveto
          -36 -22 27 60 119 64 90 69 23 27 -14 -33 16 hvcurveto
          -35 -176 rlineto
          -56 -32 -43 -17 -31 hhcurveto
          endchar
        </CharString>
        <CharString name="aogonek.a">
          -53 -210 82 116 105 -84 -21 239 83 91 107 hstemhm
          22 133 42 100 33 135 hintmask 10111111
          292 2 rmoveto
          -34 47 callgsubr
          55 275 125 callgsubr
          25 21 vvcurveto
          110 -63 52 -108 -66 -70 -21 -29 -59 vhcurveto
          42 -95 rlineto
          25 48 33 13 42 hhcurveto
          41 25 -18 -50 -7 0 -6 -3 -10 hvcurveto
          -170 -4 -135 -49 -145 vvcurveto
          -89 callgsubr
          1 -48 rlineto
          19 225 rmoveto
          hintmask 11011111
          -92 callgsubr
          hintmask 10111111
          -40 callsubr
          endchar
        </CharString>
        <CharString name="approxequal">
          -58 129 94 -17 94 62 93 -16 93 hstemhm
          38 447 hintmask 01011000
          108 383 rmoveto
          38 19 23 18 26 hhcurveto
          hintmask 01101000
          108 callgsubr
          hintmask 01011000
          182 callsubr
          -27 -75 -43 hvcurveto
          70 -279 rmoveto
          37 19 23 18 26 hhcurveto
          hintmask 10011000
          53 38 -77 75 hhcurveto
          48 52 28 75 43 hvcurveto
          -70 46 rlineto
          -37 -19 -22 -18 -27 hhcurveto
          hintmask 01011000
          182 callsubr
          -28 -75 -43 hvcurveto
          endchar
        </CharString>
        <CharString name="aring">
          -88 callsubr
          71 53 95 53 4 callsubr
          68 67 78 67 hintmask 0110111110000000
          83 callgsubr
          hintmask 1010111110000000
          -93 callsubr
          hintmask 0101111110000000
          -92 callsubr
          hintmask 0110111110000000
          -99 callgsubr
          hintmask 1010111110000000
          -103 callgsubr
          109 447 rmoveto
          65 48 49 63 57 -42 32 -58 -64 -48 -48 -64 -56 41 -33 58 hvcurveto
          11 148 rmoveto
          24 11 -19 -20 -30 -20 -26 -24 -23 -11 18 22 30 19 25 24 hvcurveto
          endchar
        </CharString>
        <CharString name="aring.a">
          -85 callgsubr
          39 53 95 53 hstemhm
          22 133 65 67 43 135 -99 66 hintmask 0011111110100000
          86 callgsubr
          hintmask 0101111110100000
          -10 callgsubr
          hintmask 0011111110100000
          -170 -4 -135 -49 -145 vvcurveto
          289 115 rmoveto
          hintmask 1001111110100000
          -92 callgsubr
          hintmask 0011111110100000
          -40 callsubr
          9 320 rmoveto
          64 48 49 63 57 -41 32 -58 -64 -49 -48 -64 -56 42 -33 58 hvcurveto
          11 148 rmoveto
          23 12 -19 -20 -30 -20 -26 -24 -23 -12 18 22 30 20 25 24 hvcurveto
          endchar
        </CharString>
        <CharString name="arrowdown">
          192 callgsubr
          298 -28 rmoveto
          267 267 -72 64 -142 -148 rlineto
          374 -110 -374 vlineto
          -142 148 -72 -64 267 -267 rlineto
          endchar
        </CharString>
        <CharString name="arrowup">
          192 callgsubr
          294 529 rmoveto
          -267 -266 72 -64 142 148 rlineto
          -375 110 375 vlineto
          142 -148 72 64 -267 266 rlineto
          endchar
        </CharString>
        <CharString name="asciicircum">
          -61 275 395 -125 125 hstemhm
          72 406 hintmask 10100000
          72 275 rmoveto
          112 hlineto
          46 135 rlineto
          hintmask 01100000
          44 135 -22 callgsubr
          43 -135 45 -135 rlineto
          112 hlineto
          -149 395 rlineto
          -108 hlineto
          endchar
        </CharString>
        <CharString name="asciitilde">
          -58 246 93 -16 93 hstemhm
          38 447 hintmask 01100000
          108 267 rmoveto
          38 19 23 18 26 hhcurveto
          hintmask 10100000
          108 callgsubr
          hintmask 01100000
          182 callsubr
          -27 -75 -43 hvcurveto
          endchar
        </CharString>
        <CharString name="asterisk">
          -129 354 360 hstem
          101 357 vstem
          173 366 rmoveto
          87 82 61 -94 65 37 -38 106 110 38 -10 70 -114 -14 8 117 -71 6 -32 -115 -107 34 -31 -65 95 -55 -75 -98 rlineto
          endchar
        </CharString>
        <CharString name="at">
          299 -170 84 125 85 -75 85 219 87 145 81 hstemhm
          43 94 114 102 389 88 hintmask 11011111
          616 124 rmoveto
          -43 -13 29 57 13 hvcurveto
          51 222 rlineto
          -83 hlineto
          -15 -41 rlineto
          -2 hlineto
          34 -17 -22 15 -31 hhcurveto
          -111 -92 -122 -125 hvcurveto
          hintmask 10111111
          -87 54 -57 71 41 46 27 38 25 vhcurveto
          4 hlineto
          hintmask 11011111
          -49 12 40 -26 47 hhcurveto
          128 111 107 212 172 -120 136 -207 -243 -217 -220 -284 -221 157 -111 179 57 54 15 29 56 hvcurveto
          -36 74 rlineto
          -21 -34 -48 -13 -37 hhcurveto
          -127 -127 86 178 231 185 176 168 186 66 -116 -125 -145 -72 -75 -54 hvcurveto
          hintmask 10111111
          -263 77 rmoveto
          65 45 87 59 19 14 -9 -22 11 vhcurveto
          -31 -139 rlineto
          -35 -25 -20 -14 -21 hhcurveto
          -32 -19 24 43 hvcurveto
          endchar
        </CharString>
        <CharString name="at.case">
          267 -32 79 93 85 -76 85 187 87 114 77 hstemhm
          87 90 93 101 339 85 hintmask 11011111
          611 225 rmoveto
          -39 -11 28 57 14 hvcurveto
          46 190 rlineto
          -82 hlineto
          -17 -40 rlineto
          -1 hlineto
          33 -14 -21 15 -28 hhcurveto
          -105 -83 -112 -109 hvcurveto
          hintmask 10111111
          -84 46 -54 65 37 45 27 38 25 vhcurveto
          3 hlineto
          hintmask 11011111
          -49 10 37 -25 44 hhcurveto
          116 97 102 190 147 -93 120 -198 -209 -208 -180 -264 -181 120 -106 160 48 59 10 29 49 hvcurveto
          -17 70 rlineto
          -20 -31 -54 -10 -35 hhcurveto
          -121 -88 78 148 197 169 152 150 160 54 -92 -105 -129 -56 -71 -43 hvcurveto
          hintmask 10111111
          -240 71 rmoveto
          52 34 73 53 16 13 -8 -23 8 vhcurveto
          -24 -107 rlineto
          -35 -22 -18 -14 -19 hhcurveto
          -26 -15 23 39 hvcurveto
          endchar
        </CharString>
        <CharString name="atilde">
          -88 callsubr
          99 -13 callgsubr
          31 142 hintmask 0110000110000000
          83 callgsubr
          hintmask 1010000110000000
          -93 callsubr
          hintmask 0101000110000000
          -92 callsubr
          hintmask 0110000110000000
          -99 callgsubr
          hintmask 1010001010000000
          -103 callgsubr
          19 477 rmoveto
          hintmask 0110000110000000
          90 callsubr
          hintmask 0110010010000000
          40 -22 callsubr
          hintmask 0110100010000000
          172 callsubr
          hintmask 0110000110000000
          -41 157 callsubr
          hintmask 0110001010000000
          52 callsubr
        </CharString>
        <CharString name="atilde.a">
          -85 callgsubr
          67 -13 callgsubr
          22 133 175 135 hintmask 0011100011100000
          86 callgsubr
          hintmask 0101100011100000
          -89 callgsubr
          hintmask 0011100011100000
          -106 callgsubr
          hintmask 1001100011100000
          -92 callgsubr
          hintmask 0011100011100000
          -40 callsubr
          hintmask 0011100101100000
          -82 350 rmoveto
          hintmask 0011100011100000
          90 callsubr
          hintmask 0011101001100000
          41 -22 callsubr
          hintmask 0011110001100000
          62 callsubr
          hintmask 0011100011100000
          -40 157 callsubr
          hintmask 0011100101100000
          52 callsubr
        </CharString>
        <CharString name="b">
          -14 -12 62 callgsubr
          379 141 hintmask 01111000
          127 hmoveto
          hintmask 10111000
          22 53 rlineto
          2 hlineto
          -40 19 41 -25 45 hhcurveto
          0 callsubr
          hintmask 01111000
          135 callsubr
          hintmask 10111000
          -119 -64 -90 -69 -25 -25 14 33 -15 vhcurveto
          38 187 rlineto
          hintmask 01111000
          46 29 42 16 31 hhcurveto
          endchar
        </CharString>
        <CharString name="b.sups">
          -197 254 78 189 78 hstem
          286 98 vstem
          121 262 rmoveto
          15 35 -22 callgsubr
          -27 13 25 -16 29 179 callgsubr
          -34 -18 -23 -26 hvcurveto
          -4 hlineto
          20 64 20 102 rlineto
          -97 hlineto
          -92 -462 rlineto
          207 259 rmoveto
          21 15 -17 -38 -76 -43 -58 -43 -14 -16 9 136 callsubr
        </CharString>
        <CharString name="backslash">
          -238 -160 870 hstem
          85 165 vstem
          161 -160 rmoveto
          89 hlineto
          -77 870 rlineto
          -88 hlineto
          endchar
        </CharString>
        <CharString name="bar">
          177 callgsubr
          -250 rmoveto
          86 1000 -86 hlineto
          endchar
        </CharString>
        <CharString name="braceleft">
          -239 171 callgsubr
          hstemhm
          45 113 -62 108 hintmask 11100000
          45 -65 rmoveto
          -57 26 -30 71 vhcurveto
          61 hlineto
          14 73 rlineto
          -17 hlineto
          -33 -9 11 27 hvcurveto
          hintmask 11010000
          57 46 119 67 vvcurveto
          41 -19 20 -37 9 vhcurveto
          4 vlineto
          53 12 30 33 16 76 11 59 6 51 11 53 rrcurveto
          55 10 15 20 41 hhcurveto
          19 hlineto
          16 73 rlineto
          -64 hlineto
          -88 -36 -35 -108 -22 hvcurveto
          -14 -69 2 -39 -12 -62 -8 -35 -24 -40 -66 -2 -18 -80 rcurveline
          55 -2 15 -28 -29 vvcurveto
          hintmask 11100000
          -49 -51 -117 -78 vvcurveto
          endchar
        </CharString>
        <CharString name="braceright">
          -236 171 callgsubr
          hstemhm
          134 108 -62 113 hintmask 11010000
          293 621 rmoveto
          57 -26 30 -70 vhcurveto
          -62 hlineto
          -14 -73 rlineto
          17 hlineto
          33 9 -11 -28 hvcurveto
          hintmask 11100000
          -56 -46 -119 -67 vvcurveto
          -41 18 -20 38 -9 vhcurveto
          -4 vlineto
          -53 -12 -30 -33 -16 -76 -11 -59 -6 -51 -11 -53 rrcurveto
          -55 -10 -15 -20 -41 hhcurveto
          -19 hlineto
          -16 -73 rlineto
          64 hlineto
          88 36 34 108 22 hvcurveto
          14 70 -2 39 12 62 8 35 24 40 66 2 18 80 rcurveline
          -55 2 -15 28 29 vvcurveto
          hintmask 11010000
          48 51 118 78 vvcurveto
          endchar
        </CharString>
        <CharString name="bracketleft">
          -237 171 callgsubr
          hstem
          -3 372 vstem
          114 -79 rmoveto
          142 714 rlineto
          99 hlineto
          14 73 rlineto
          -200 hlineto
          -172 -860 184 callgsubr
          endchar
        </CharString>
        <CharString name="bracketright">
          -236 171 callgsubr
          hstem
          -29 372 vstem
          -14 -79 rmoveto
          -15 -73 rlineto
          200 hlineto
          172 860 rlineto
          -200 hlineto
          -14 -73 rlineto
          97 hlineto
          -143 -714 rlineto
          endchar
        </CharString>
        <CharString name="breve">
          -33 574 74 hstem
          224 76 vstem
          331 574 32 callsubr
          145 callsubr
          -37 -61 callsubr
          endchar
        </CharString>
        <CharString name="brokenbar">
          177 callgsubr
          309 rmoveto
          86 441 -86 hlineto
          -545 vmoveto
          -455 86 455 vlineto
          endchar
        </CharString>
        <CharString name="bullet">
          -237 127 271 hstem
          39 254 vstem
          154 127 rmoveto
          84 55 78 73 70 -50 50 -65 -84 -55 -78 -73 -70 49 -50 66 hvcurveto
          endchar
        </CharString>
        <CharString name="c">
          -124 -28 callsubr
          hstem
          29 140 -90 callgsubr
          endchar
        </CharString>
        <CharString name="c.sups">
          -271 254 76 192 77 hstem
          52 98 vstem
          52 385 rmoveto
          -82 59 -49 73 45 38 17 17 21 vhcurveto
          -31 61 rlineto
          -9 -15 -14 -10 -23 hhcurveto
          -29 -26 21 45 64 40 62 54 17 11 -6 -15 13 hvcurveto
          55 58 rlineto
          21 -21 -31 19 -40 hhcurveto
          -113 -83 -101 -113 hvcurveto
          endchar
        </CharString>
        <CharString name="cacute">
          -124 20 callgsubr
          hstem
          29 140 -90 callgsubr
          209 381 -62 callsubr
        </CharString>
        <CharString name="caron">
          -33 79 callsubr
          217 292 vstem
          509 722 -25 callgsubr
        </CharString>
        <CharString name="ccaron">
          -124 20 callgsubr
          hstem
          29 140 -90 callgsubr
          469 530 -72 callsubr
        </CharString>
        <CharString name="ccedilla">
          -124 -220 55 181 -21 403 110 hstemhm
          29 140 -6 102 hintmask 11110000
          332 130 rmoveto
          -16 -21 -24 -16 -34 hhcurveto
          -56 -28 37 60 111 64 92 79 28 18 -11 -21 20 hvcurveto
          76 81 rlineto
          31 -25 -46 30 -62 hhcurveto
          -163 -129 -144 -172 -105 56 -70 80 -22 hvcurveto
          hintmask 11101000
          -48 -71 rlineto
          -40 callgsubr
          -26 10 vhcurveto
          21 34 68 4 46 27 34 26 rlinecurve
          endchar
        </CharString>
        <CharString name="ccircumflex">
          -124 20 callgsubr
          hstem
          29 140 -90 callgsubr
          146 381 101 callsubr
        </CharString>
        <CharString name="cdotaccent">
          -124 -28 callsubr
          62 147 hstem
          29 140 85 159 -90 callgsubr
          299 378 -21 callgsubr
        </CharString>
        <CharString name="cedilla">
          -33 -220 55 120 49 hstem
          173 102 vstem
          127 -76 rmoveto
          -40 callgsubr
          -26 10 vhcurveto
          31 49 rlineto
          -80 hlineto
          endchar
        </CharString>
        <CharString name="cent">
          -58 -18 694 hstem
          72 134 vstem
          255 198 rmoveto
          -32 19 -17 38 52 vvcurveto
          77 42 60 60 21 vhcurveto
          101 -244 rmoveto
          -24 -18 -26 -11 -30 -4 56 281 rcurveline
          19 -6 16 -12 18 -17 79 75 rcurveline
          -29 32 -33 29 -48 9 19 97 rcurveline
          -76 hlineto
          -19 -96 rlineto
          -130 -18 -129 -107 -169 vvcurveto
          -118 63 -74 96 -15 vhcurveto
          -19 -97 rlineto
          76 hlineto
          19 96 52 6 47 20 45 29 rlinecurve
          endchar
        </CharString>
        <CharString name="circumflex">
          -33 79 callsubr
          186 292 vstem
          186 573 -50 callgsubr
          endchar
        </CharString>
        <CharString name="colon">
          -276 -12 175 159 175 hstemhm
          24 168 -112 169 hintmask 11010000
          151 322 rmoveto
          59 39 50 50 42 -28 33 195 callsubr
          -49 -44 29 -30 42 hvcurveto
          hintmask 11100000
          -57 -334 rmoveto
          59 88 callsubr
          -49 -44 28 -30 42 hvcurveto
          endchar
        </CharString>
        <CharString name="colonmonetary">
          -58 9 -21 32 -21 647 -20 hstemhm
          56 132 hintmask 01110000
          364 545 rmoveto
          15 13 -2 -5 11 hvcurveto
          -137 -436 -13 3 -11 6 -10 9 rlinecurve
          -32 50 rmoveto
          -8 22 -4 26 30 vvcurveto
          134 48 117 78 35 vhcurveto
          243 4 rmoveto
          -21 36 -25 32 -33 21 39 126 rcurveline
          -47 hlineto
          -33 -107 -12 4 -13 3 -14 1 rlinecurve
          31 99 rlineto
          -47 hlineto
          -31 -99 rlineto
          -162 -16 -133 -163 -237 vvcurveto
          -105 35 -76 61 -39 vhcurveto
          -40 -128 rlineto
          48 hlineto
          34 109 12 -4 12 -3 13 -2 rlinecurve
          hintmask 10110000
          -31 -100 rlineto
          47 hlineto
          31 98 56 3 61 22 64 52 rlinecurve
          -64 81 -26 -23 -27 -18 -29 -5 rlinecurve
          128 409 7 -9 8 -11 7 -13 rlinecurve
          endchar
        </CharString>
        <CharString name="comma">
          -276 -187 350 -163 163 hstemhm
          26 176 hintmask 10100000
          -13 -187 rmoveto
          hintmask 01100000
          64 callgsubr
          endchar
        </CharString>
        <CharString name="comma.dnom">
          -368 -127 143 callgsubr
          0 125 hintmask 10100000
          -24 -127 38 callsubr
        </CharString>
        <CharString name="comma.numr">
          -368 143 143 callgsubr
          50 125 hintmask 10100000
          26 143 38 callsubr
        </CharString>
        <CharString name="comma.subs">
          -368 -297 143 callgsubr
          -38 125 hintmask 10100000
          -62 -297 37 callsubr
        </CharString>
        <CharString name="comma.sups">
          -368 313 143 callgsubr
          82 125 hintmask 10100000
          58 313 37 callsubr
        </CharString>
        <CharString name="copyright">
          105 -9 61 75 81 227 80 80 60 hstem
          30 64 80 99 335 64 vstem
          174 282 rmoveto
          -97 63 -58 93 48 45 16 33 41 vhcurveto
          -38 60 rlineto
          -18 -28 -18 -10 -28 hhcurveto
          -50 -29 32 54 83 59 58 51 21 19 -8 -20 17 hvcurveto
          57 56 rlineto
          25 -20 -35 27 -47 hhcurveto
          -103 -118 -90 -143 hvcurveto
          124 -291 -20 callsubr
        </CharString>
        <CharString name="currency">
          -58 131 97 205 97 hstem
          56 125 174 125 vstem
          399 93 rmoveto
          73 63 -49 60 rlineto
          35 38 22 51 60 vvcurveto
          28 -6 24 -10 22 vhcurveto
          66 57 -59 70 -71 -62 rlineto
          16 -27 -34 10 -38 hhcurveto
          -38 -37 -10 -18 -34 hvcurveto
          -51 63 -72 -62 45 -57 rlineto
          -35 -39 -23 -51 -60 vvcurveto
          -29 6 -26 11 -21 vhcurveto
          -66 -56 59 -70 72 62 rlineto
          -17 27 33 -8 37 hhcurveto
          38 38 9 19 35 hvcurveto
          -60 274 rmoveto
          42 27 -28 -51 -73 -52 -53 -53 -42 -27 29 50 73 52 53 53 hvcurveto
          endchar
        </CharString>
        <CharString name="d">
          -21 -12 112 -79 -21 396 112 193 -20 -46 callsubr
          endchar
        </CharString>
        <CharString name="d.sups">
          -187 262 70 189 78 hstem
          54 99 vstem
          301 559 rmoveto
          -4 hlineto
          23 -11 -26 17 -28 hhcurveto
          -92 -86 -99 -125 -78 36 -43 58 34 39 19 31 29 hvcurveto
          4 hlineto
          -2 -42 rlineto
          78 hlineto
          92 461 rlineto
          -97 hlineto
          -19 -99 rlineto
          -118 -292 rmoveto
          -20 -15 17 38 76 42 58 43 14 16 -9 -21 10 hvcurveto
          -20 -111 rlineto
          -36 -22 -26 -12 -22 hhcurveto
          endchar
        </CharString>
        <CharString name="dagger">
          -79 442.5 102.5 167 -20 hstem
          81 422 vstem
          122 -80 rmoveto
          111 hlineto
          97 527 152 -9 21 111 -155 -8 43 171 98 callgsubr
          -26 -171 -150 8 -23 -111 156 9 rlineto
          endchar
        </CharString>
        <CharString name="daggerdbl">
          -79 85.5 101.5 257 101 167 -20 hstem
          11 492 vstem
          11 81 rmoveto
          153 9 -41 -170 rlineto
          110 hlineto
          25 170 152 -9 22 111 -155 -10 34 134 19 134 152 -12 21 111 -155 -8 41 171 rlineto
          -109 hlineto
          -26 -171 -152 8 -21 -111 156 12 -36 -134 -18 -134 -151 10 rlineto
          endchar
        </CharString>
        <CharString name="dcaron">
          2 -12 -80 callgsubr
          40 153 -46 callsubr
          416 448 rmoveto
          53 153 15 69 rlineto
          -87 hlineto
          -40 -222 rlineto
          endchar
        </CharString>
        <CharString name="dcroat">
          -17 192 callsubr
          67 -67 143 -140.5 140.5 4 callsubr
          hintmask 10110010
          337 173 rmoveto
          -56 -34 -39 -17 -33 hhcurveto
          -36 -22 27 60 97 63 92 69 24 25 -14 -33 14 hvcurveto
          263 296 rmoveto
          -67 hlineto
          hintmask 01101010
          15 76 -91 callsubr
          hintmask 01110010
          -14 -76 rlineto
          -144 hlineto
          hintmask 10101010
          -13 -67 rlineto
          144 hlineto
          -7 -36 -12 -94 rlineto
          -3 hlineto
          36 -17 -35 24 -45 hhcurveto
          -137 -128 -151 -167 -117 53 -65 87 52 58 30 47 45 hvcurveto
          3 hlineto
          hintmask 01100110
          -2 -65 rlineto
          111 hlineto
          112 558 67 5 rlineto
          endchar
        </CharString>
        <CharString name="degree">
          -219 403 67 149 67 hstem
          94 74 130 73 vstem
          219 403 rmoveto
          81 71 70 87 76 -51 50 -74 -80 -72 -70 -87 -76 52 -50 73 hvcurveto
          22 216 rmoveto
          37 20 -28 -32 -47 -30 -42 -43 -37 -20 28 32 47 29 42 44 hvcurveto
          endchar
        </CharString>
        <CharString name="dieresis">
          -33 572 134 hstem
          182 134 56 134 vstem
          241 572 -28 callgsubr
        </CharString>
        <CharString name="divide">
          -58 76 145 61 97 59 146 hstem
          191 152 vstem
          267 438 rmoveto
          42 34 31 43 41 -34 31 -42 -43 -33 -31 -41 -43 33 -31 43 hvcurveto
          -362 vmoveto
          42 34 29 43 41 -34 32 -42 -43 -33 -32 -41 -43 33 -29 43 hvcurveto
          218 206 rmoveto
          149 callsubr
          endchar
        </CharString>
        <CharString name="dollar">
          -58 -110 208 -82 -21 550 208 hstemhm
          100 135 67 135 hintmask 01111000
          497 563 rmoveto
          -34 41 -41 29 -46 13 21 107 rcurveline
          -91 hlineto
          -19 -99 rlineto
          -112 -11 -75 -77 -105 vvcurveto
          hintmask 10111000
          -151 202 -27 -109 vvcurveto
          -47 -32 -29 -55 -51 -44 34 39 -30 vhcurveto
          hintmask 01111000
          -84 -83 39 -47 54 -33 57 -13 rlinecurve
          hintmask 10111000
          -21 -105 rlineto
          90 hlineto
          21 100 rlineto
          117 13 74 80 108 163 -202 26 97 vvcurveto
          39 29 29 46 38 37 -24 -35 26 vhcurveto
          endchar
        </CharString>
        <CharString name="dong">
          -58 0 69 45 92 184 92 66 70 hstem
          68 117 vstem
          26 hmoveto
          380 hlineto
          14 69 rlineto
          -380 hlineto
          271 175 rmoveto
          -27 -27 -23 -11 -26 hhcurveto
          -32 -18 23 42 76 53 43 41 23 17 -10 -20 15 hvcurveto
          234 258 rmoveto
          -70 hlineto
          11 56 rlineto
          -112 hlineto
          -11 -56 -91 callsubr
          -14 -70 -29 callgsubr
          -7 -37 -12 -69 rlineto
          25 -20 -20 15 -43 hhcurveto
          -90 -112 -86 -142 -87 45 -53 77 40 42 20 29 31 hvcurveto
          2 -39 93 hlineto
          86 424 71 6 rlineto
          endchar
        </CharString>
        <CharString name="dotaccent">
          -33 570 147 hstem
          265 159 vstem
          339 570 rmoveto
          99 callsubr
          43 -36 23 -87 callgsubr
        </CharString>
        <CharString name="dotlessi">
          26 callgsubr
          hstem
          14 236 vstem
          -60 callgsubr
          endchar
        </CharString>
        <CharString name="e">
          -55 callsubr
          hstem
          -3 callsubr
          vstem
          -107 callgsubr
          endchar
        </CharString>
        <CharString name="e.sups">
          -235 254 72 72 59 69 73 hstem
          52 91 126 78 vstem
          52 396 rmoveto
          -89 56 -53 83 37 41 11 20 36 vhcurveto
          -29 61 rlineto
          -13 -21 -17 -7 -20 hhcurveto
          -45 -31 23 49 1 hvcurveto
          187 hlineto
          6 11 11 34 31 vvcurveto
          67 -27 58 -82 -88 -98 -83 -120 vhcurveto
          98 61 rmoveto
          45 15 32 24 29 hhcurveto
          32 11 -22 -25 -8 -1 -7 -2 -7 hvcurveto
          endchar
        </CharString>
        <CharString name="eacute">
          -55 callsubr
          65 149 hstem
          -3 callsubr
          vstem
          -107 callgsubr
          -112 280 -62 callsubr
        </CharString>
        <CharString name="eacute.sups">
          120 callgsubr
          192 640 rmoveto
          72 hlineto
          101 99 rlineto
          -96 hlineto
          -216 -19 callsubr
        </CharString>
        <CharString name="ebreve">
          -55 callsubr
          66 74 -74 137 hstemhm
          29 130 54 76 66 112 hintmask 11101111
          -107 callgsubr
          -30 281 138 callgsubr
          -77 hlineto
          hintmask 11110111
          145 callsubr
          hintmask 11101111
          133 callsubr
        </CharString>
        <CharString name="ecaron">
          -55 callsubr
          65 149 hstem
          -3 callsubr
          vstem
          -107 callgsubr
          148 429 -25 callgsubr
        </CharString>
        <CharString name="ecircumflex">
          -55 callsubr
          65 149 hstem
          -3 callsubr
          vstem
          -107 callgsubr
          -175 280 -50 callgsubr
          endchar
        </CharString>
        <CharString name="edieresis">
          -55 callsubr
          64 134 hstemhm
          29 130 12 134 50 112 -105 133 hintmask 11111010
          -107 callgsubr
          hintmask 11111101
          -120 279 29 callsubr
        </CharString>
        <CharString name="edotaccent">
          -55 callsubr
          62 147 hstemhm
          29 130 95 160 -59 112 hintmask 11111010
          -107 callgsubr
          hintmask 11111100
          -22 277 rmoveto
          48 -75 callgsubr
          -87 callgsubr
        </CharString>
        <CharString name="egrave">
          -55 callsubr
          65 149 hstem
          -3 callsubr
          vstem
          -107 callgsubr
          -50 280 rmoveto
          94 hlineto
          -56 149 rlineto
          -126 hlineto
          endchar
        </CharString>
        <CharString name="egrave.sups">
          120 callgsubr
          231 640 rmoveto
          67 hlineto
          -39 99 rlineto
          -87 hlineto
          -119 -19 callsubr
        </CharString>
        <CharString name="eight">
          -99 callsubr
        </CharString>
        <CharString name="eight.dnom">
          -205 -12 68 276 70 hstemhm
          6 94 -39 87 57 90 -64 88 hintmask 11101000
          100 103 -54 callgsubr
        </CharString>
        <CharString name="eight.numr">
          -205 258 68 276 70 hstemhm
          56 94 -39 87 57 90 -64 88 hintmask 11101000
          150 373 -54 callgsubr
        </CharString>
        <CharString name="eight.onum">
          -99 callsubr
        </CharString>
        <CharString name="eight.pnum">
          -99 callsubr
        </CharString>
        <CharString name="eight.subs">
          -205 -182 68 276 70 hstemhm
          -32 144 callgsubr
          hintmask 11101000
          62 -67 -54 callsubr
        </CharString>
        <CharString name="eight.sups">
          -205 428 68 276 70 hstemhm
          88 144 callgsubr
          hintmask 11101000
          182 543 -54 callsubr
        </CharString>
        <CharString name="eight.tnum">
          -99 callsubr
        </CharString>
        <CharString name="ellipsis">
          409 -12 175 hstem
          69 169 151 168 151 169 vstem
          140 -12 rmoveto
          126 callsubr
          320 hmoveto
          58 39 50 50 183 callsubr
          -49 -44 28 -30 43 hvcurveto
          319 hmoveto
          126 callsubr
          endchar
        </CharString>
        <CharString name="emacron">
          -55 callsubr
          85 87 hstem
          -3 callsubr
          vstem
          -107 callgsubr
          -158 300 40 callgsubr
        </CharString>
        <CharString name="emdash">
          84 callsubr
        </CharString>
        <CharString name="endash">
          -103 208 89 hstem
          34 395 vstem
          34 208 rmoveto
          377 hlineto
          18 89 rlineto
          -377 hlineto
          endchar
        </CharString>
        <CharString name="eogonek">
          -71 -210 82 116 103 118 84 110 105 hstemhm
          29 130 11 99 86 112 vstemhm
          170 -137 rmoveto
          -48 36 -25 49 33 43 16 20 28 vhcurveto
          -23 56 rlineto
          -6 -11 -11 -4 -11 hhcurveto
          -18 -16 11 19 31 22 48 119 59 hvcurveto
          -48 86 rlineto
          -17 -25 -36 -18 -31 hhcurveto
          hintmask 11111010
          -65 -50 35 83 4 hvcurveto
          282 hlineto
          8 15 18 51 47 vvcurveto
          103 -44 83 -118 -132 -144 -124 -184 -132 83 -80 122 3 5 0 1 3 vhcurveto
          hintmask 11111110
          -15 -13 -60 -49 -64 vvcurveto
          430 vmoveto
          73 22 49 37 47 hhcurveto
          50 17 -33 -40 -14 -2 -13 -3 -10 hvcurveto
          endchar
        </CharString>
        <CharString name="equal">
          154 callsubr
          398 rmoveto
          149 callsubr
          437 -233 rmoveto
          149 callsubr
          endchar
        </CharString>
        <CharString name="estimated">
          233 -12 20 308 18 306 20 hstem
          66 130 450 128 vstem
          204 108 rmoveto
          -4 6 -4 6 8 vvcurveto
          184 vlineto
          2 2 2 2 vhcurveto
          574 hlineto
          2 0 4 2 vvcurveto
          186 -158 150 -196 -196 -158 -150 -186 -186 158 -150 196 114 102 52 80 66 vhcurveto
          -52 hlineto
          -68 -56 -82 -44 -90 hhcurveto
          -86 -78 38 62 -54 hvcurveto
          -4 226 rmoveto
          -2 -2 2 4 hvcurveto
          180 vlineto
          8 4 8 4 6 vhcurveto
          60 56 76 38 86 hhcurveto
          82 76 -36 -58 56 hvcurveto
          6 -6 4 -8 -8 vvcurveto
          -184 vlineto
          -4 -2 -2 -4 vhcurveto
          endchar
        </CharString>
        <CharString name="eth">
          -30 -12 110 253 104 247 -20 hstem
          34 123 208 129 vstem
          236 98 rmoveto
          -52 -27 42 53 76 43 82 80 38 28 -24 -28 19 hvcurveto
          -116 -11 -47 -85 -71 hhcurveto
          317 539 rmoveto
          -26 65 -145 -58 -35 38 -44 31 -49 27 rlinecurve
          -63 -79 31 -19 27 -21 22 -21 rlinecurve
          -124 -50 26 -65 145 58 26 -41 15 -46 5 -55 rlinecurve
          36 -22 -39 18 -40 hhcurveto
          -146 -83 -141 -132 -119 84 -75 105 183 88 186 182 90 -24 77 -42 64 hvcurveto
          endchar
        </CharString>
        <CharString name="exclam">
          -236 -12 175 -154 -21 hstemhm
          45 169 hintmask 01100000
          115 226 rmoveto
          90 hlineto
          83 318 29 126 -91 callsubr
          -19 -126 rlineto
          -45 -556 rmoveto
          58 40 50 50 hvcurveto
          hintmask 10100000
          43 -28 32 195 callsubr
          -49 vhcurveto
          hintmask 01100000
          -44 28 -30 43 vhcurveto
          endchar
        </CharString>
        <CharString name="exclamdown">
          -236 333 175 0 -20 hstemhm
          120 169 hintmask 01100000
          219 270 rmoveto
          -90 hlineto
          -83 -318 -29 -126 -29 callgsubr
          19 126 rlineto
          45 556 rmoveto
          -58 -40 -50 -50 hvcurveto
          hintmask 10100000
          -43 28 -32 43 58 40 52 49 vhcurveto
          hintmask 01100000
          44 -28 30 -43 vhcurveto
          endchar
        </CharString>
        <CharString name="f">
          -240 21 -21 142 callsubr
          hstem
          36 405 vstem
          -66 callgsubr
          endchar
        </CharString>
        <CharString name="f.sups">
          -345 516 75 72 75 hstem
          58 275 vstem
          333 720 rmoveto
          12 -23 -24 6 -26 hhcurveto
          -79 -38 -56 -68 -14 hvcurveto
          -5 -24 -45 -4 -12 -70 rlineto
          42 hlineto
          -51 -254 rlineto
          96 hlineto
          52 254 rlineto
          58 hlineto
          15 75 rlineto
          -58 hlineto
          4 21 rlineto
          36 7 14 15 25 hhcurveto
          11 13 -5 -5 7 hvcurveto
          endchar
        </CharString>
        <CharString name="f_f">
          58 21 -21 389 107 98 109 -99 109 hstemhm
          36 705 hintmask 11011000
          741 686 rmoveto
          17 -31 -36 10 -39 hhcurveto
          -113 -58 -82 -102 -20 hvcurveto
          -7 -33 rlineto
          -165 hlineto
          hintmask 11101000
          6 28 rlineto
          54 11 22 16 38 hhcurveto
          19 19 -8 -7 12 hvcurveto
          44 97 rlineto
          17 -32 -37 10 -39 hhcurveto
          -115 -58 -82 -102 -21 hvcurveto
          -5 -24 -64 -5 -21 -101 rlineto
          64 hlineto
          -79 -389 -29 callgsubr
          78 389 rlineto
          165 hlineto
          -79 -389 -29 callgsubr
          77 389 rlineto
          88 hlineto
          20 107 rlineto
          -87 hlineto
          hintmask 11011000
          8 38 rlineto
          54 11 22 16 37 hhcurveto
          17 20 -8 -7 11 hvcurveto
          endchar
        </CharString>
        <CharString name="f_t">
          83 -12 107 -74 -21 142 callsubr
          hstemhm
          345 140 hintmask 01111000
          531 389 rmoveto
          115 150 callgsubr
          -112 hlineto
          24 130 rlineto
          -114 hlineto
          -42 -130 rlineto
          -151 hlineto
          8 38 rlineto
          54 10 23 16 36 hhcurveto
          18 19 -8 -7 11 hvcurveto
          44 97 rlineto
          17 -31 -37 10 -38 hhcurveto
          -114 -58 -82 -102 -20 hvcurveto
          -7 -34 -64 -5 -21 -101 rlineto
          64 hlineto
          -79 -389 -29 callgsubr
          78 389 rlineto
          144 hlineto
          -43 -207 rlineto
          -4 -21 -3 -21 -21 vvcurveto
          hintmask 10111000
          -76 40 -55 100 51 40 12 10 26 vhcurveto
          -25 96 rlineto
          -6 -13 -13 -5 -14 hhcurveto
          -36 -16 16 32 11 0 10 2 12 hvcurveto
          endchar
        </CharString>
        <CharString name="fi">
          25 21 -21 389 107 74 147 -113 109 hstemhm
          461 159 hintmask 11011000
          -66 callgsubr
          269 -490 rmoveto
          137 hlineto
          99 496 -91 callsubr
          hintmask 11101000
          95 74 -80 callsubr
        </CharString>
        <CharString name="figuredash">
          -58 208 89 hstem
          34 440 vstem
          34 208 rmoveto
          422 hlineto
          18 89 rlineto
          -422 hlineto
          endchar
        </CharString>
        <CharString name="five">
          -58 180 callsubr
          319 138 vstem
          -7 -18 callgsubr
        </CharString>
        <CharString name="five.dnom">
          -207 -12 140 callgsubr
          202 98 vstem
          -3 68 -2 callgsubr
        </CharString>
        <CharString name="five.numr">
          -207 258 140 callgsubr
          252 98 vstem
          47 338 -2 callgsubr
        </CharString>
        <CharString name="five.onum">
          -37 callsubr
        </CharString>
        <CharString name="five.pnum">
          -78 180 callsubr
          310 138 vstem
          -16 -18 callgsubr
        </CharString>
        <CharString name="five.subs">
          -207 -182 140 callgsubr
          163 99 vstem
          -41 -102 -66 callsubr
          endchar
        </CharString>
        <CharString name="five.sups">
          -207 428 140 callgsubr
          283 99 vstem
          79 508 -66 callsubr
          endchar
        </CharString>
        <CharString name="five.tnum">
          -37 callsubr
        </CharString>
        <CharString name="fiveeighths">
          248 -12 68 202 80 -6 70 50 69 54 85 hstemhm
          243 99 117 94 -40 88 56 91 -64 87 hintmask 1101110110000000
          39 338 -66 callsubr
          119 -397 24 callsubr
          hintmask 1101111010000000
          410 19 callgsubr
          hintmask 1011110101000000
          87 callsubr
          hintmask 1101111010000000
          -188 -141 rmoveto
          -60 51 -45 82 102 callsubr
          hintmask 1011110101000000
          92 callgsubr
          hintmask 1101111010000000
          90 callgsubr
        </CharString>
        <CharString name="fl">
          35 -12 110 -89 -21 33 -21 142 callsubr
          -27 15 0 -20 hstemhm
          364 174.5 hintmask 00110011
          51 389 rmoveto
          64 hlineto
          -79 -389 -29 callgsubr
          77 389 rlineto
          88 150 callgsubr
          -86 hlineto
          hintmask 00111001
          7 38 rlineto
          54 10 23 16 36 hhcurveto
          18 19 -8 -7 11 hvcurveto
          hintmask 00110101
          44 97 rlineto
          hintmask 01011001
          17 -31 -37 10 -38 hhcurveto
          -114 -58 -82 -102 -20 hvcurveto
          -6 -33 -65 -6 rlineto
          299 -344 rmoveto
          -58 callgsubr
          16 vhcurveto
          hintmask 10010011
          5 -83 callgsubr
          endchar
        </CharString>
        <CharString name="fl.a">
          25 142 callsubr
          hstem
          36 583 vstem
          -66 callgsubr
          269 -490 rmoveto
          137 hlineto
          141 701 30 callgsubr
        </CharString>
        <CharString name="four">
          -58 189 callgsubr
          8 483 vstem
          365 hmoveto
          31 154 rlineto
          73 hlineto
          20 120 callsubr
          263 hlineto
          -31 -154 rlineto
          -79 260 rmoveto
          109 139 25 108 callsubr
        </CharString>
        <CharString name="four.dnom">
          -203 89 67 168 66 hstem
          -6 340 vstem
          98 156 -15 callsubr
          -123 hlineto
          89 callgsubr
          -18 -89 rlineto
          87 hlineto
          17 89 rlineto
          56 hlineto
          endchar
        </CharString>
        <CharString name="four.numr">
          -203 359 67 168 66 hstem
          44 340 vstem
          148 426 -15 callsubr
          -123 hlineto
          89 callgsubr
          -18 -89 rlineto
          87 hlineto
          17 89 rlineto
          56 hlineto
          endchar
        </CharString>
        <CharString name="four.onum">
          -30 callgsubr
        </CharString>
        <CharString name="four.pnum">
          -44 189 callgsubr
          17 483 vstem
          374 hmoveto
          30 154 rlineto
          73 hlineto
          21 120 callsubr
          262 hlineto
          -31 -154 rlineto
          -78 260 rmoveto
          108 139 26 108 callsubr
        </CharString>
        <CharString name="four.subs">
          -203 -81 67 168 66 hstem
          -44 340 vstem
          60 -14 -15 callsubr
          -124 hlineto
          -195 -249 -10 -52 rlineto
          184 hlineto
          -18 -89 rlineto
          86 hlineto
          18 89 rlineto
          56 hlineto
          endchar
        </CharString>
        <CharString name="four.sups">
          -203 529 67 168 66 hstem
          76 340 vstem
          180 596 -15 callsubr
          -124 hlineto
          -195 -249 -10 -52 rlineto
          184 hlineto
          -18 -89 rlineto
          86 hlineto
          18 89 rlineto
          56 hlineto
          endchar
        </CharString>
        <CharString name="four.tnum">
          -30 callgsubr
        </CharString>
        <CharString name="fraction">
          -473 -12 684 hstem
          -215 554 vstem
          -135 -12 24 callsubr
          endchar
        </CharString>
        <CharString name="g">
          -73 callgsubr
        </CharString>
        <CharString name="g.a">
          -44 callsubr
          hstemhm
          -26 117 -41 112 -97 126 102 135 -98 116 hintmask 1110100101000000
          65 -13 callsubr
          hintmask 1111001001000000
          -24 callgsubr
          hintmask 1111010010000000
          -76 callsubr
          hintmask 1111001001000000
          -89 callsubr
          hintmask 1110100101000000
          -31 callgsubr
          hintmask 1111010010000000
          -84 callgsubr
          hintmask 1110100101000000
          -69 callsubr
          endchar
        </CharString>
        <CharString name="g.supa">
          -228 122 60 183 58 96 71 -57 65 hstemhm
          16 82 -31 77 -67 88 64 95 -71 81 hintmask 1110001010000000
          77 467 rmoveto
          -32 14 -24 22 -20 vhcurveto
          -3 vlineto
          hintmask 1110010010000000
          -27 -14 -19 -23 -27 vvcurveto
          -18 7 -16 11 -10 vhcurveto
          -3 vlineto
          hintmask 1110100100000000
          -39 -16 -30 -24 -37 vvcurveto
          -68 79 -10 48 86 95 38 79 43 -27 22 -99 13 vhcurveto
          hintmask 1110010010000000
          -47 7 -7 5 16 vvcurveto
          10 8 8 7 5 vhcurveto
          -2 7 12 -1 12 hhcurveto
          85 59 50 74 11 -1 9 -3 10 hvcurveto
          47 hlineto
          13 71 rlineto
          -123 hlineto
          5 -14 -15 3 -18 hhcurveto
          hintmask 1110001010000000
          -78 -65 -56 -75 hvcurveto
          hintmask 1110100100000000
          54 -211 rmoveto
          17 -4 12 -3 10 -1 rrcurveto
          33 -4 26 -7 -21 vvcurveto
          -21 -32 -13 -44 -37 -18 10 25 16 17 13 16 10 vhcurveto
          hintmask 1101001010000000
          87 277 rmoveto
          22 13 -15 -28 -33 -21 -34 -33 -22 -12 15 28 33 21 34 32 hvcurveto
          endchar
        </CharString>
        <CharString name="g.sups">
          -202 114 75 78 77 177 78 hstem
          56 99 vstem
          318 591 rmoveto
          -15 -35 rlineto
          -4 hlineto
          26 -13 -26 17 -28 hhcurveto
          -93 -83 -98 -119 -74 35 -41 59 36 33 14 23 30 hvcurveto
          4 hlineto
          -15 -48 rlineto
          -42 -14 -28 -25 -37 hhcurveto
          -33 -33 16 18 -28 hvcurveto
          -39 -64 rlineto
          -32 42 49 -13 39 hhcurveto
          91 63 48 99 20 hvcurveto
          66 330 rlineto
          -206 -247 rmoveto
          -21 -14 15 35 71 39 56 44 14 16 -9 -21 10 hvcurveto
          -21 -112 rlineto
          -26 -20 -25 -9 -22 hhcurveto
          endchar
        </CharString>
        <CharString name="gbreve">
          -52 callgsubr
          98 74 -74 137 4 callsubr
          42 76 hintmask 11010111
          420 496 rmoveto
          hintmask 11100111
          -101 callgsubr
          hintmask 11010111
          -48 callgsubr
          hintmask 11100111
          -48 callsubr
          hintmask 11010111
          77 callgsubr
          hintmask 11100111
          93 447 32 callsubr
          hintmask 11101011
          -35 -11 -24 -28 -36 hhcurveto
          hintmask 11100111
          -37 -61 callsubr
          endchar
        </CharString>
        <CharString name="gbreve.a">
          -44 callsubr
          66 74 -74 137 hstemhm
          -26 117 -41 112 -97 126 -7 76 33 135 -98 116 hintmask 1110101001001000
          65 -13 callsubr
          hintmask 1111001010001000
          -24 callgsubr
          hintmask 1111001100010000
          -76 callsubr
          hintmask 1111001010001000
          -89 callsubr
          hintmask 1110101001001000
          -31 callgsubr
          hintmask 1111001100010000
          -84 callgsubr
          hintmask 1110101001001000
          -69 callsubr
          hintmask 1111001000101000
          16 159 32 callsubr
          hintmask 1111010000101000
          -35 -12 186 callsubr
          hintmask 1111001000101000
          -36 -61 callsubr
          endchar
        </CharString>
        <CharString name="gcaron">
          -52 callgsubr
          97 149 4 callsubr
          hintmask 11011100
          420 496 rmoveto
          hintmask 11101100
          -101 callgsubr
          hintmask 11011100
          -48 callgsubr
          hintmask 11101100
          -48 callsubr
          hintmask 11011100
          77 callgsubr
          hintmask 11101100
          271 595 -72 callsubr
        </CharString>
        <CharString name="gcaron.a">
          -44 callsubr
          65 149 -98 callgsubr
          194 307 -72 callsubr
        </CharString>
        <CharString name="gcircumflex">
          -52 callgsubr
          97 149 4 callsubr
          hintmask 11011100
          420 496 rmoveto
          hintmask 11101100
          -101 callgsubr
          hintmask 11011100
          -48 callgsubr
          hintmask 11101100
          -48 callsubr
          hintmask 11011100
          77 callgsubr
          hintmask 11101100
          -53 446 -67 callsubr
          endchar
        </CharString>
        <CharString name="gcircumflex.a">
          -44 callsubr
          65 149 -98 callgsubr
          -130 158 -67 callsubr
          endchar
        </CharString>
        <CharString name="gdotaccent">
          -52 callgsubr
          94 147 4 callsubr
          83 159 hintmask 11011100
          420 496 rmoveto
          hintmask 11101100
          -101 callgsubr
          hintmask 11011100
          -48 callgsubr
          hintmask 11101100
          -48 callsubr
          hintmask 11011100
          77 callgsubr
          hintmask 11101110
          101 443 -80 callsubr
        </CharString>
        <CharString name="gdotaccent.a">
          -44 callsubr
          62 147 hstemhm
          -26 117 -41 112 -97 126 33 160 -91 135 -98 116 hintmask 1110110010010000
          65 -13 callsubr
          hintmask 1111010100010000
          -24 callgsubr
          hintmask 1111011000100000
          -76 callsubr
          hintmask 1111010100010000
          -89 callsubr
          hintmask 1110110010010000
          -31 callgsubr
          hintmask 1111011000100000
          -84 callgsubr
          hintmask 1110110010010000
          -69 callsubr
          hintmask 1111010011000000
          24 155 rmoveto
          47 -90 callsubr
          38 hvcurveto
          endchar
        </CharString>
        <CharString name="germandbls">
          42 -12 102 -69 -21 604 109 hstemhm
          298 133 -18 132 -111 127 hintmask 01101000
          -74 callgsubr
          96 479 rlineto
          69 15 37 56 55 hhcurveto
          42 17 -23 -38 hvcurveto
          hintmask 10110000
          -87 -115 -24 -91 vvcurveto
          hintmask 10100100
          -102 136 -23 -67 vvcurveto
          -35 -25 -24 -36 -34 -30 15 18 -26 vhcurveto
          -56 -91 rlineto
          -31 45 51 -13 51 hhcurveto
          105 82 77 98 hvcurveto
          hintmask 10110000
          116 -130 28 58 vvcurveto
          hintmask 10101000
          60 114 26 112 vvcurveto
          104 -92 46 -94 -135 -85 -90 -118 -23 vhcurveto
          endchar
        </CharString>
        <CharString name="grave">
          -33 79 callsubr
          222 183 vstem
          310 573 rmoveto
          95 69 callgsubr
        </CharString>
        <CharString name="greater">
          -58 108 445 hstemhm
          48 439 -140 140 hintmask 11000000
          48 108 rmoveto
          hintmask 10100000
          439 175 rlineto
          96 vlineto
          -439 174 rlineto
          -112 vlineto
          171 -61 128 -46 rlineto
          -4 vlineto
          -128 -47 -171 -61 rlineto
          endchar
        </CharString>
        <CharString name="greaterequal">
          -58 0 97 hstemhm
          48 439 -138 138 hintmask 11000000
          485 hmoveto
          149 callsubr
          153 vmoveto
          hintmask 10100000
          439 145 rlineto
          112 vlineto
          -439 143 rlineto
          -112 vlineto
          169 -51 132 -35 rlineto
          -4 vlineto
          -132 -35 -169 -50 rlineto
          endchar
        </CharString>
        <CharString name="guillemotleft">
          -106 58 386 hstem
          40 402 91 callsubr
          292 -149 rmoveto
          55 35 -78 154 133 152 -43 45 -153 -139 -17 -98 rlineto
          endchar
        </CharString>
        <CharString name="guillemotright">
          -106 58 386 hstem
          27 401 87 callgsubr
          85 149 rmoveto
          -55 -35 78 -154 -133 -152 43 -45 153 139 17 98 rlineto
          endchar
        </CharString>
        <CharString name="guilsinglleft">
          -295 58 386 hstem
          40 213 91 callsubr
          endchar
        </CharString>
        <CharString name="guilsinglright">
          -295 58 386 hstem
          27 213 87 callgsubr
          endchar
        </CharString>
        <CharString name="h">
          -21 21 115 callsubr
          14 496 -140 140 hintmask 10111000
          -74 callgsubr
          hintmask 11011000
          150 callsubr
          hintmask 11010100
          -81 callsubr
          endchar
        </CharString>
        <CharString name="h.sups">
          -198 517 82 hstemhm
          43 337 -100 100 hintmask 11000000
          145 callgsubr
          hintmask 10100000
          179 callsubr
          12 -11 -22 -7 -2 -9 -4 -14 181 callgsubr
          3 13 3 17 15 vvcurveto
          55 -25 32 -55 -40 -35 -22 -24 -28 vhcurveto
          -4 hlineto
          19 69 20 102 rlineto
          -97 hlineto
          endchar
        </CharString>
        <CharString name="hbar">
          -21 21 -21 371 117 70 64 -64 67 -67 143 hstemhm
          14 492 -140 140 hintmask 11001100
          228 418 rmoveto
          22 80 12 60 rlineto
          161 hlineto
          hintmask 11010100
          15 67 rlineto
          -162 hlineto
          hintmask 11001100
          16 76 -91 callsubr
          hintmask 11100100
          -15 -76 -69 -6 rlineto
          hintmask 11001100
          -13 -61 rlineto
          68 hlineto
          -112 -558 -29 callgsubr
          60 307 rlineto
          hintmask 11001010
          -17 callsubr
          18 -17 -34 -13 -4 -14 -4 -20 hvcurveto
          -55 -273 -29 callgsubr
          58 290 125 callgsubr
          23 23 vvcurveto
          82 -36 45 -82 vhcurveto
          hintmask 11001100
          -59 -53 -31 -39 -44 hvcurveto
          endchar
        </CharString>
        <CharString name="hcircumflex">
          -21 21 191 callsubr
          74 119 hstemhm
          14 496 -140 140 hintmask 10111100
          -74 callgsubr
          hintmask 11011100
          150 callsubr
          hintmask 11011010
          -81 callsubr
          -84 54 104 callsubr
          41 -63 rlineto
          101 hlineto
          -69 119 111 callsubr
        </CharString>
        <CharString name="hungarumlaut">
          -33 79 callsubr
          208 375 vstem
          208 573 11 callsubr
        </CharString>
        <CharString name="hyphen">
          -247 205 97 hstem
          33 255 vstem
          33 156 callgsubr
        </CharString>
        <CharString name="i">
          26 callgsubr
          94 147 hstem
          134 159 vstem
          -60 callgsubr
          94 74 rmoveto
          99 callsubr
          43 -36 23 -87 callgsubr
        </CharString>
        <CharString name="i.sups">
          -387 637 100 hstem
          121 111 vstem
          145 callgsubr
          65 329 rlineto
          -97 hlineto
          65 46 111 callgsubr
        </CharString>
        <CharString name="iacute">
          26 callgsubr
          97 149 hstem
          14 349 vstem
          -60 callgsubr
          -4 77 -62 callsubr
        </CharString>
        <CharString name="icircumflex">
          26 callgsubr
          97 149 hstem
          14 325 vstem
          -60 callgsubr
          -67 77 -50 callgsubr
          endchar
        </CharString>
        <CharString name="idieresis">
          26 callgsubr
          96 134 hstem
          43 134 57 133 vstem
          -60 callgsubr
          -12 76 29 callsubr
        </CharString>
        <CharString name="igrave">
          26 callgsubr
          97 149 hstem
          14 252 vstem
          -60 callgsubr
          58 77 rmoveto
          94 hlineto
          -56 149 rlineto
          -126 hlineto
          endchar
        </CharString>
        <CharString name="imacron">
          26 callgsubr
          117 87 hstem
          14 331 vstem
          -60 callgsubr
          -50 97 40 callgsubr
        </CharString>
        <CharString name="infinity">
          214 119 125 -102 100 151 125 -84 99 hstemhm
          43 101 508 101 hintmask 01011100
          207 142 rmoveto
          68 53 50 44 33 hvcurveto
          4 hlineto
          hintmask 10011100
          -81 59 59 -36 80 hhcurveto
          105 85 89 122 125 -84 78 -106 -74 -54 -42 -67 -48 hvcurveto
          -4 hlineto
          hintmask 01101100
          47 -36 -52 47 -80 hhcurveto
          -104 -68 -84 -107 hvcurveto
          hintmask 01011100
          -104 64 -81 100 vhcurveto
          hintmask 10011100
          221 204 rmoveto
          57 40 45 31 45 hhcurveto
          56 38 -37 -55 -54 -34 -44 -54 -56 -39 44 58 -41 hvcurveto
          hintmask 01101100
          -210 -104 rmoveto
          -46 -28 36 41 42 24 32 47 38 38 -35 -44 28 hvcurveto
          -42 -27 -33 -30 -41 hhcurveto
          endchar
        </CharString>
        <CharString name="integral">
          -193 -158 102 744 103 hstem
          -32 484 vstem
          -4 -52 rmoveto
          -28 -98 rlineto
          -6 13 20 -2 21 hhcurveto
          143 49 103 141 27 hvcurveto
          31 162 -5 149 29 152 rrcurveto
          95 19 21 44 50 hhcurveto
          17 14 -2 -2 9 hvcurveto
          26 100 rlineto
          4 -12 -24 3 -24 hhcurveto
          -144 -48 -105 -140 -27 hvcurveto
          -31 -162 7 -148 -31 -153 rrcurveto
          -97 -19 -19 -42 -50 hhcurveto
          -14 -12 2 2 -8 hvcurveto
          endchar
        </CharString>
        <CharString name="iogonek">
          -302 -210 82 149 -32 callsubr
          94 147 hstem
          -39 99 74 159 vstem
          14 hmoveto
          39 hlineto
          -31 -20 -61 -53 -64 vvcurveto
          -56 callsubr
          36 26 36 65 26 hvcurveto
          99 496 80 callsubr
          94 74 rmoveto
          99 callsubr
          43 -36 23 -87 callgsubr
        </CharString>
        <CharString name="iogonek.d">
          -302 -210 82 149 -32 callsubr
          hstem
          -39 99 vstem
          14 hmoveto
          39 hlineto
          -31 -20 -61 -53 -64 vvcurveto
          -56 callsubr
          36 26 36 65 26 hvcurveto
          99 496 80 callsubr
          endchar
        </CharString>
        <CharString name="itilde">
          26 callgsubr
          99 -13 callgsubr
          14 370 hintmask 11000110
          -60 callgsubr
          hintmask 11001010
          -2 81 rmoveto
          hintmask 11000110
          30 12 13 13 14 hhcurveto
          hintmask 11010010
          41 -22 callsubr
          hintmask 11100010
          172 callsubr
          hintmask 11000110
          -41 157 callsubr
          hintmask 11001010
          52 callsubr
        </CharString>
        <CharString name="j">
          114 callsubr
          94 147 hstemhm
          136 159 13 callsubr
          61 586 -80 callsubr
        </CharString>
        <CharString name="j.sups">
          -387 126 75 436 100 hstem
          121 111 vstem
          205 591 rmoveto
          -97 hlineto
          -67 -340 rlineto
          -36 -7 -8 -14 -23 hhcurveto
          -10 -9 3 4 -10 hvcurveto
          -29 -67 rlineto
          -11 23 21 -4 22 hhcurveto
          76 36 50 67 13 hvcurveto
          37 394 111 callgsubr
        </CharString>
        <CharString name="jcircumflex">
          114 callsubr
          97 149 hstemhm
          -131 469 13 callsubr
          -103 589 -50 callgsubr
          endchar
        </CharString>
        <CharString name="k">
          -42 79 callgsubr
          225 -20 hstem
          14 539 21 callgsubr
          endchar
        </CharString>
        <CharString name="k.sups">
          -212 262 462 hstem
          43 365 vstem
          145 callgsubr
          16 81 50 48 50 -129 rlineto
          96 hlineto
          -80 184 136 145 rlineto
          -106 hlineto
          -119 -130 rlineto
          -4 hlineto
          53 263 rlineto
          -97 hlineto
          endchar
        </CharString>
        <CharString name="kgreenlandic">
          -42 79 callgsubr
          hstem
          14 539 -56 callgsubr
          39 201 30 callgsubr
        </CharString>
        <CharString name="l">
          -292 -12 160 callsubr
          hintmask 00111000
          44 146 rmoveto
          hintmask 01011000
          -58 callgsubr
          17 vhcurveto
          hintmask 10011000
          -85 callsubr
          endchar
        </CharString>
        <CharString name="l.a">
          -302 21 -21 701 -20 hstem
          14 278 vstem
          -31 callsubr
          endchar
        </CharString>
        <CharString name="l.supa">
          -387 262 462 hstem
          43 189 vstem
          145 callgsubr
          92 462 rlineto
          -97 hlineto
          endchar
        </CharString>
        <CharString name="l.sups">
          -387 254 76 -76 470 hstemhm
          59 121.5 hintmask 01100000
          64 364 rmoveto
          hintmask 10100000
          -4 -17 -1 -13 -13 vvcurveto
          -41 20 -26 50 21 18 3 4 12 vhcurveto
          1 71 rlineto
          -2 -5 -2 0 -4 hhcurveto
          -7 -6 2 13 3 0 5 2 4 hvcurveto
          73 367 rlineto
          -97 hlineto
          endchar
        </CharString>
        <CharString name="lacute">
          -292 -12 50 callgsubr
          76 118 hstemhm
          37 175 hintmask 00111100
          44 146 rmoveto
          hintmask 01011100
          -58 callgsubr
          17 vhcurveto
          hintmask 10011100
          -85 callsubr
          7 56 -49 callsubr
        </CharString>
        <CharString name="lacute.a">
          -302 21 -21 701 -20 76 118 hstem
          14 398 vstem
          -31 callsubr
          7 56 -49 callsubr
        </CharString>
        <CharString name="lcaron">
          -286 183 callgsubr
          549 153 hstemhm
          37 175 hintmask 00111000
          44 146 rmoveto
          hintmask 01011000
          -58 callgsubr
          17 vhcurveto
          hintmask 10011000
          -85 callsubr
          204 -153 81 callsubr
        </CharString>
        <CharString name="lcaron.a">
          -286 21 -21 548 153 hstem
          14 412 vstem
          -31 callsubr
          204 -153 81 callsubr
        </CharString>
        <CharString name="ldot">
          -146 183 callgsubr
          248 175 279 -20 hstemhm
          37 175 64 168 hintmask 00111110
          44 146 rmoveto
          hintmask 01011110
          -58 callgsubr
          17 vhcurveto
          hintmask 10011110
          -85 callsubr
          192 -454 rmoveto
          58 88 callsubr
          -48 -44 28 -31 43 hvcurveto
          endchar
        </CharString>
        <CharString name="ldot.a">
          -146 21 -21 247 175 279 -20 hstemhm
          14 430 -168 168 hintmask 11110000
          -31 callsubr
          hintmask 11101000
          192 -454 rmoveto
          58 88 callsubr
          -48 -44 28 -31 43 hvcurveto
          endchar
        </CharString>
        <CharString name="less">
          -58 108 445 hstem
          46 140 vstem
          46 283 rmoveto
          439 -175 rlineto
          114 vlineto
          -170 61 -129 47 rlineto
          4 vlineto
          129 46 170 61 rlineto
          112 vlineto
          -439 -174 rlineto
          endchar
        </CharString>
        <CharString name="lessequal">
          -58 0 97 hstemhm
          46 140 -140 439 hintmask 10100000
          485 hmoveto
          149 callsubr
          hintmask 11000000
          -2 298 rmoveto
          439 -145 rlineto
          113 vlineto
          -167 50 -132 35 rlineto
          4 vlineto
          132 35 167 51 rlineto
          112 vlineto
          -439 -143 rlineto
          endchar
        </CharString>
        <CharString name="lira">
          -58 0 115 106 70 52 71 131 110 hstemhm
          143 127 -117 124 hintmask 11111000
          126 callgsubr
          hvcurveto
          -3 0 -3 -3 vvcurveto
          hintmask 11110100
          -60 -5 -15 -65 rlineto
          81 hlineto
          2 -18 2 -18 -16 vvcurveto
          -16 hlineto
          -79 -5 -15 -65 rlineto
          101 hlineto
          -19 -61 -45 -48 -65 -28 136 callgsubr
          28 33 18 32 9 37 rlinecurve
          115 hlineto
          14 70 rlineto
          -120 hlineto
          3 0 3 3 vvcurveto
          13 -1 15 -2 15 vhcurveto
          135 hlineto
          15 71 rlineto
          hintmask 11111000
          -154 hlineto
          90 3 45 41 53 hhcurveto
          33 21 -17 -30 22 hvcurveto
          endchar
        </CharString>
        <CharString name="logicalnot">
          -58 282 97 hstem
          387 98 vstem
          48 282 rmoveto
          339 -187 98 284 -437 hlineto
          endchar
        </CharString>
        <CharString name="lozenge">
          -40 -10 113 454 113 hstem
          66 424 vstem
          222 -10 rmoveto
          111 hlineto
          157 340 -157 340 98 callgsubr
          -156 -340 rlineto
          210 -227 rmoveto
          -53 123 -45 104 45 104 53 123 -22 callgsubr
          52 -123 45 -104 -45 -104 -52 -123 rlineto
          endchar
        </CharString>
        <CharString name="lslash">
          -282 183 callgsubr
          508 -20 214 -20 hstemhm
          47 174.5 hintmask 00111100
          233 356 rmoveto
          72 42 21 109 121 callsubr
          37 -28 -142 rlineto
          hintmask 01011100
          -58 callgsubr
          16 vhcurveto
          hintmask 10011100
          5 101 rlineto
          -2 -9 -3 0 -6 hhcurveto
          -10 -9 6 17 5 0 4 2 10 hvcurveto
          endchar
        </CharString>
        <CharString name="lslash.a">
          -283 21 -21 507 -20 214 -20 hstem
          15 311 vstem
          326 507 rmoveto
          121 callsubr
          36 -58 -287 -29 callgsubr
          72 356 72 42 rlineto
          endchar
        </CharString>
        <CharString name="m">
          260 21 46 callgsubr
          hstemhm
          14 771 -140 140 hintmask 11010000
          38 callgsubr
          hintmask 11001000
          6 callgsubr
          hintmask 10110000
          51 callgsubr
          endchar
        </CharString>
        <CharString name="m.sups">
          -14 517 82 -53 45 hstemhm
          462 100 hintmask 01100000
          44 262 rmoveto
          96 hlineto
          hintmask 10100000
          42 213 rlineto
          28 24 25 14 14 hhcurveto
          22 9 -12 -21 -10 -3 -9 -2 -11 hvcurveto
          -38 -192 rlineto
          95 hlineto
          42 213 rlineto
          29 25 24 13 16 hhcurveto
          20 7 -11 -20 -11 -1 -10 -3 -11 hvcurveto
          -37 -192 rlineto
          95 hlineto
          41 203 rlineto
          3 15 2 18 13 vvcurveto
          57 -22 31 -55 -42 -37 -28 -30 -34 vhcurveto
          35 -9 -20 23 -45 hhcurveto
          -43 -35 -24 -29 -31 hvcurveto
          -4 hlineto
          hintmask 01100000
          1 45 rlineto
          -78 hlineto
          endchar
        </CharString>
        <CharString name="macron">
          -33 593 87 hstem
          203 281 vstem
          203 593 76 callgsubr
          -264 hlineto
          endchar
        </CharString>
        <CharString name="minus">
          -58 282 97 hstem
          48 437 vstem
          485 282 rmoveto
          149 callsubr
          endchar
        </CharString>
        <CharString name="multiply">
          -58 120 420 hstem
          63 408 vstem
          267 263 rmoveto
          136 -143 68 67 -137 143 137 143 -68 67 -136 -142 -137 142 -67 -67 136 -143 -136 -143 67 -67 rlineto
          endchar
        </CharString>
        <CharString name="n">
          -15 36 callgsubr
          hstemhm
          14 496 -140 140 hintmask 10011000
          -74 callgsubr
          hintmask 11001000
          150 callsubr
          hintmask 11000100
          -93 callgsubr
          hintmask 10101000
          51 callgsubr
          endchar
        </CharString>
        <CharString name="n.sups">
          -197 517 82 -53 45 hstemhm
          279 101 hintmask 01100000
          145 callgsubr
          179 callsubr
          11 -11 -22 -7 -1 -10 -4 -13 181 callgsubr
          hintmask 10100000
          2 14 4 16 15 vvcurveto
          55 -25 32 -55 -43 -36 -24 -29 -32 vhcurveto
          -4 hlineto
          hintmask 01100000
          1 45 rlineto
          -78 hlineto
          endchar
        </CharString>
        <CharString name="nacute">
          -15 36 callgsubr
          85 149 hstemhm
          14 515 -159 140 182 callgsubr
          hintmask 11001100
          150 callsubr
          hintmask 11001010
          -93 callgsubr
          hintmask 10101100
          51 callgsubr
          164 77 -62 callsubr
        </CharString>
        <CharString name="napostrophe">
          255 36 callgsubr
          64 145 hstemhm
          222 80 341 140 hintmask 10011110
          -57 callsubr
          388 -4 rmoveto
          hintmask 10101110
          51 callgsubr
          -98 -496 -29 callgsubr
          hintmask 11001110
          150 callsubr
          -17 callsubr
          17 -17 -34 -13 -3 -14 -5 -20 hvcurveto
          -58 -293 rlineto
          136 hlineto
          62 310 125 callgsubr
          23 23 vvcurveto
          82 -35 45 -82 vhcurveto
          hintmask 10011110
          -63 -55 -36 -42 -49 hvcurveto
          endchar
        </CharString>
        <CharString name="nbspace.frac">
          -429 endchar
        </CharString>
        <CharString name="ncaron">
          -15 36 callgsubr
          85 149 hstemhm
          14 522 -166 140 182 callgsubr
          hintmask 11001100
          150 callsubr
          hintmask 11001010
          -93 callgsubr
          hintmask 10101100
          51 callgsubr
          424 226 -72 callsubr
        </CharString>
        <CharString name="nine">
          -53 callgsubr
        </CharString>
        <CharString name="nine.dnom">
          -205 -12 139 callgsubr
          36 90 101 94 vstem
          168 212 rmoveto
          -26 -16 16 27 40 27 27 25 28 21 -19 -55 hvcurveto
          -3 0 -3 -3 vvcurveto
          -18 -75 callsubr
          -17 10 19 -20 hvcurveto
          endchar
        </CharString>
        <CharString name="nine.numr">
          -205 258 139 callgsubr
          86 90 101 94 vstem
          218 482 rmoveto
          -26 -16 16 27 40 27 27 25 28 21 -19 -55 hvcurveto
          -3 0 -3 -3 vvcurveto
          -18 -75 callsubr
          -17 10 19 -20 hvcurveto
          endchar
        </CharString>
        <CharString name="nine.onum">
          -60 callsubr
        </CharString>
        <CharString name="nine.pnum">
          -53 callgsubr
        </CharString>
        <CharString name="nine.subs">
          -205 -182 139 callgsubr
          -2 90 101 94 vstem
          130 42 rmoveto
          -27 -15 16 27 40 26 27 26 28 21 -19 -55 hvcurveto
          -3 0 -2 -3 vvcurveto
          -19 -75 callsubr
          -18 10 19 -19 hvcurveto
          endchar
        </CharString>
        <CharString name="nine.sups">
          -205 428 139 callgsubr
          118 90 101 94 vstem
          250 652 rmoveto
          -27 -15 16 27 40 26 27 26 28 21 -19 -55 hvcurveto
          -3 0 -2 -3 vvcurveto
          -19 -75 callsubr
          -18 10 19 -19 hvcurveto
          endchar
        </CharString>
        <CharString name="nine.tnum">
          -60 callsubr
        </CharString>
        <CharString name="notequal">
          154 callsubr
          165 rmoveto
          97 -213 vlineto
          78 136 rlineto
          135 97 -85 hlineto
          72 121 rlineto
          -88 hlineto
          -72 -121 rlineto
          -264 -97 214 hlineto
          -78 -136 rlineto
          -136 -97 86 hlineto
          -72 -121 rlineto
          87 hlineto
          72 121 rlineto
          endchar
        </CharString>
        <CharString name="ntilde">
          -15 36 callgsubr
          87 -13 callgsubr
          14 535 -179 140 hintmask 1001000110000000
          -74 callgsubr
          hintmask 1100000110000000
          150 callsubr
          hintmask 1100000101000000
          -93 callgsubr
          hintmask 1010001010000000
          51 callgsubr
          165 81 rmoveto
          hintmask 1001000110000000
          90 callsubr
          hintmask 1001010010000000
          160 callgsubr
          hintmask 1001100010000000
          62 callsubr
          hintmask 1001000110000000
          -41 -13 45 -61 hhcurveto
          hintmask 1001001010000000
          -47 -47 -43 -85 -23 hvcurveto
          endchar
        </CharString>
        <CharString name="numbersign">
          -61 21 -21 188 89 116 89 hstem
          18 504 vstem
          34 hmoveto
          80 hlineto
          60 188 rlineto
          100 hlineto
          -60 -188 rlineto
          81 hlineto
          60 188 rlineto
          83 hlineto
          21 89 rlineto
          -76 hlineto
          36 116 rlineto
          82 hlineto
          21 89 rlineto
          -75 hlineto
          53 168 rlineto
          -80 hlineto
          -54 -168 rlineto
          -100 hlineto
          54 168 rlineto
          -81 hlineto
          -54 -168 rlineto
          -82 hlineto
          -22 -89 rlineto
          76 hlineto
          -36 -116 rlineto
          -82 hlineto
          -21 -89 rlineto
          76 hlineto
          108 89 rmoveto
          36 116 rlineto
          100 hlineto
          -36 -116 rlineto
          endchar
        </CharString>
        <CharString name="o">
          -3 callgsubr
          hstem
          -32 callgsubr
          vstem
          -105 callgsubr
          endchar
        </CharString>
        <CharString name="o.sups">
          -10 callsubr
        </CharString>
        <CharString name="oacute">
          -34 20 callgsubr
          hstem
          -32 callgsubr
          vstem
          -105 callgsubr
          -43 175 -62 callsubr
        </CharString>
        <CharString name="ocircumflex">
          -34 20 callgsubr
          hstem
          -32 callgsubr
          vstem
          -105 callgsubr
          -106 175 -50 callgsubr
          endchar
        </CharString>
        <CharString name="odieresis">
          -3 callgsubr
          64 134 187 callsubr
          14 134 46 138 -128 134 hintmask 11110100
          -105 callgsubr
          hintmask 11111010
          -51 174 -28 callgsubr
        </CharString>
        <CharString name="oe">
          231 -12 103 -103 110 111 84 105 110 -105 105 187 callsubr
          185 119 184 112 hintmask 01110111
          214 -12 rmoveto
          65 66 36 63 47 hvcurveto
          -64 27 52 -35 63 hhcurveto
          77 61 24 28 40 hvcurveto
          hintmask 10110111
          -49 86 rlineto
          -17 -24 -36 -18 -31 hhcurveto
          -58 -45 35 83 3 hvcurveto
          271 168 callsubr
          -57 -63 -34 -61 -46 vhcurveto
          61 -26 -42 34 -73 hhcurveto
          -130 -139 -124 -192 hvcurveto
          hintmask 01110111
          -123 73 -81 111 vhcurveto
          70 410 rmoveto
          46 23 -36 -61 -116 -54 -87 -62 -46 -23 37 60 116 58 87 58 hvcurveto
          199 -105 rmoveto
          hintmask 01101111
          73 20 44 37 43 hhcurveto
          49 17 -33 -40 -14 -2 -13 -2 -10 hvcurveto
          endchar
        </CharString>
        <CharString name="ogonek">
          -33 -210 82 hstem
          100 99 vstem
          100 -137 rmoveto
          -56 callsubr
          31 22 33 50 36 hvcurveto
          -76 hlineto
          -34 -22 -61 -53 -64 vvcurveto
          endchar
        </CharString>
        <CharString name="ograve">
          -34 20 callgsubr
          hstem
          -32 callgsubr
          vstem
          -105 callgsubr
          18 175 rmoveto
          95 69 callgsubr
        </CharString>
        <CharString name="ohorn">
          163 callgsubr
          hstemhm
          -32 callgsubr
          -24 108 hintmask 11110000
          237 98 -43 callgsubr
          hintmask 11101000
          -86 callgsubr
          hintmask 11110000
          -6 callgsubr
          hintmask 11101000
          1 callgsubr
        </CharString>
        <CharString name="ohungarumlaut">
          -34 20 callgsubr
          hstem
          -32 callgsubr
          vstem
          -105 callgsubr
          -84 175 11 callsubr
        </CharString>
        <CharString name="omacron">
          -3 callgsubr
          85 87 hstem
          -32 callgsubr
          vstem
          -105 callgsubr
          -89 195 76 callgsubr
          -264 hlineto
          endchar
        </CharString>
        <CharString name="one">
          -58 0 110 383 113 callgsubr
          106 525 rlineto
          -102 hlineto
          -46 -28 -46 -17 -70 -11 -17 -86 rcurveline
          116 hlineto
          -78 -383 rlineto
          -131 hlineto
          endchar
        </CharString>
        <CharString name="one.dnom">
          -191 285 105 hstem
          88 207 vstem
          117 hmoveto
          7 callgsubr
        </CharString>
        <CharString name="one.numr">
          -191 555 105 hstem
          138 207 vstem
          167 270 rmoveto
          7 callgsubr
        </CharString>
        <CharString name="one.onum">
          -192 21 -21 436 142 hstem
          62 280 vstem
          89 hmoveto
          137 hlineto
          116 578 73 callgsubr
          endchar
        </CharString>
        <CharString name="one.pnum">
          -189 21 -21 493 142 hstem
          70 280 vstem
          222 hmoveto
          128 635 73 callgsubr
          -99 -493 rlineto
          endchar
        </CharString>
        <CharString name="one.subs">
          -191 115 105 hstem
          50 207 vstem
          79 -170 rmoveto
          7 callgsubr
        </CharString>
        <CharString name="one.sups">
          -191 725 105 hstem
          170 207 vstem
          199 440 rmoveto
          7 callgsubr
        </CharString>
        <CharString name="one.tnum">
          -58 0 110 326 113 callgsubr
          93 468 73 callgsubr
          -65 -326 rlineto
          -131 hlineto
          endchar
        </CharString>
        <CharString name="oneeighth">
          244 -12 68 276 70 153 105 hstemhm
          455 144 callgsubr
          hintmask 11101100
          131 -9 callsubr
          9 -567 48 callsubr
          hintmask 11110100
          431 115 rmoveto
          26 17 24 31 16 vhcurveto
          30 -18 26 -12 -31 vvcurveto
          -31 -24 -21 -33 -27 -20 22 25 vhcurveto
          hintmask 11101010
          -18 callsubr
          hintmask 11110100
          -188 10 callgsubr
          hintmask 11101010
          40 -8 callgsubr
          hintmask 11110100
          90 callgsubr
        </CharString>
        <CharString name="onehalf">
          246 0 85 -76 -21 327 87 153 105 hstemhm
          663 100 hintmask 10011000
          131 -9 callsubr
          hintmask 01011000
          1 -567 48 callsubr
          hintmask 10111000
          333 12 rmoveto
          277 hlineto
          17 85 151 callgsubr
          88 71 56 61 72 vvcurveto
          70 -50 43 -80 -55 -36 -23 -41 -45 vhcurveto
          56 -59 rlineto
          21 21 19 15 21 hhcurveto
          33 169 callgsubr
        </CharString>
        <CharString name="onequarter">
          210 0 156 -147 -21 101 67 168 66 165 105 hstemhm
          105 642 hintmask 10011100
          135 -9 callsubr
          405 117 rmoveto
          hintmask 01011100
          97 callsubr
          80 hlineto
          474 684 rlineto
          hintmask 10011100
          -166 -516 rmoveto
          65 82 61 86 -22 callgsubr
          -28 -120 -10 -48 rlineto
          144 hmoveto
          -58 165 callgsubr
          -123 hlineto
          hintmask 00111100
          89 callgsubr
          hintmask 10011100
          -18 -89 rlineto
          87 hlineto
          hintmask 00111100
          17 89 rlineto
          56 hlineto
          endchar
        </CharString>
        <CharString name="onethird">
          244 -12 185 callgsubr
          153 105 hstemhm
          649 97 -78 101 hintmask 11111000
          131 -9 callsubr
          1 -567 48 callsubr
          338 80 127 callsubr
          hintmask 11110100
          55 21 25 36 50 vvcurveto
          58 -50 39 -71 -48 -38 -9 -28 -45 vhcurveto
          153 callsubr
          -18 -29 -74 hvcurveto
          hintmask 11111000
          -13 131 callgsubr
          endchar
        </CharString>
        <CharString name="ordfeminine">
          -37 callgsubr
        </CharString>
        <CharString name="ordfeminine.a">
          191 callgsubr
          20 94 109 96 vstem
          20 336 rmoveto
          -50 36 -32 47 35 35 134 callsubr
          4 18 2 81 callgsubr
          -3 0 -3 -1 -5 hvcurveto
          -112 -4 -90 175 callgsubr
          -16 -17 -12 -20 hhcurveto
          -20 -12 11 18 31 30 22 67 2 hvcurveto
          endchar
        </CharString>
        <CharString name="ordmasculine">
          -10 callsubr
        </CharString>
        <CharString name="oslash">
          -34 -12 107 306 107 hstem
          30 128 214 128 vstem
          372 313 rmoveto
          -5 0 -4 -5 vvcurveto
          -94 -48 -110 -92 -22 -17 8 14 -12 vhcurveto
          -22 62 rmoveto
          -1 5 0 5 6 vvcurveto
          95 50 111 89 23 18 -9 -16 12 vhcurveto
          184 104 rmoveto
          -44 39 -54 -56 rlineto
          30 -34 -44 15 -50 hhcurveto
          -137 -141 -124 -192 -46 10 -39 19 -31 hvcurveto
          -59 -60 43 -41 54 56 rlineto
          -28 33 44 -15 48 hhcurveto
          137 141 123 193 45 -10 38 -17 30 hvcurveto
          endchar
        </CharString>
        <CharString name="otilde">
          -3 callgsubr
          67 -13 callgsubr
          -32 callgsubr
          hintmask 11000111
          -105 callgsubr
          hintmask 11001011
          -42 179 rmoveto
          hintmask 11000111
          30 13 13 13 14 hhcurveto
          hintmask 11010011
          41 -22 callsubr
          hintmask 11100011
          62 callsubr
          hintmask 11000111
          -40 157 callsubr
          hintmask 11001011
          52 callsubr
        </CharString>
        <CharString name="p">
          -14 115 callgsubr
          -12 -20 hstemhm
          379 141 hintmask 11011000
          153 47 rmoveto
          2 hlineto
          -37 22 37 -22 42 hhcurveto
          136 128 149 189 hvcurveto
          hintmask 11101000
          117 -52 65 -88 -51 -55 -28 -41 -45 vhcurveto
          -3 hlineto
          hintmask 11011000
          -1 57 98 callgsubr
          -137 -680 -29 callgsubr
          25 134 rlineto
          hintmask 11101000
          182 446 68 callgsubr
        </CharString>
        <CharString name="p.sups">
          -198 254 77 190 78 hstem
          286 98 vstem
          136 297 rmoveto
          4 hlineto
          -27 13 26 -16 28 179 callgsubr
          -32 -17 -28 -31 hvcurveto
          -4 hlineto
          -3 37 rlineto
          -78 hlineto
          -91 -463 rlineto
          96 hlineto
          20 100 rlineto
          117 293 rmoveto
          21 15 -17 -38 -76 -45 -59 -43 -15 -13 10 136 callsubr
        </CharString>
        <CharString name="paragraph">
          41 652 -20 hstem
          69 527 vstem
          314 -80 rmoveto
          137 hlineto
          145 732 -91 callsubr
          -174 -452 rmoveto
          30 hlineto
          91 452 rlineto
          -44 hlineto
          -153 -140 -81 -188 -118 101 -65 115 hvcurveto
          endchar
        </CharString>
        <CharString name="parenleft">
          -238 -179 912 hstem
          56 110 vstem
          115 -179 rmoveto
          87 36 rlineto
          -25 71 -11 108 85 vvcurveto
          194 63 191 141 187 vhcurveto
          -79 40 rlineto
          -152 -192 -83 -178 -232 vvcurveto
          -109 28 -117 31 -84 vhcurveto
          endchar
        </CharString>
        <CharString name="parenleft.dnom">
          -312 -88 565 hstem
          38 96 vstem
          192 477 10 callsubr
          -17 49 -8 67 54 vvcurveto
          121 41 101 84 113 vhcurveto
          endchar
        </CharString>
        <CharString name="parenleft.numr">
          -312 182 565 hstem
          88 96 vstem
          242 747 10 callsubr
          -17 49 -8 67 54 vvcurveto
          121 41 101 84 113 vhcurveto
          endchar
        </CharString>
        <CharString name="parenleft.subs">
          -312 -258 565 hstem
          0 95 vstem
          154 307 10 callsubr
          -18 49 -8 67 54 vvcurveto
          121 42 101 84 113 vhcurveto
          endchar
        </CharString>
        <CharString name="parenleft.sups">
          -312 352 565 hstem
          120 95 vstem
          274 917 10 callsubr
          -18 49 -8 67 54 vvcurveto
          121 42 101 84 113 vhcurveto
          endchar
        </CharString>
        <CharString name="parenright">
          -236 -179 912 hstem
          171 111 vstem
          222 733 rmoveto
          -87 -35 rlineto
          25 -72 11 -108 -85 vvcurveto
          -194 -63 -191 -141 -187 vhcurveto
          79 -40 rlineto
          153 192 83 178 233 vvcurveto
          108 -29 117 -31 84 vhcurveto
          endchar
        </CharString>
        <CharString name="parenright.dnom">
          -314 -88 565 hstem
          98 95 vstem
          39 -88 42 callsubr
        </CharString>
        <CharString name="parenright.numr">
          -314 182 565 hstem
          148 95 vstem
          89 182 42 callsubr
        </CharString>
        <CharString name="parenright.subs">
          -314 -258 565 hstem
          59 95 vstem
          1 -258 42 callgsubr
        </CharString>
        <CharString name="parenright.sups">
          -314 352 565 hstem
          179 95 vstem
          121 352 42 callgsubr
        </CharString>
        <CharString name="partialdiff">
          -4 -10 110 210 106 145 108 hstem
          29 126 250 130 vstem
          222 100 rmoveto
          -45 -22 35 35 66 42 74 70 51 28 -35 -38 16 hvcurveto
          -77 -33 -49 -60 -58 hhcurveto
          7 430 rmoveto
          17 23 32 14 30 hhcurveto
          62 29 -49 -71 -32 -4 -35 -8 -36 hvcurveto
          50 -28 -45 28 -58 hhcurveto
          -141 -92 -139 -123 -103 80 -61 91 203 132 247 213 136 -73 83 -129 -59 -52 -22 -34 -49 hvcurveto
          endchar
        </CharString>
        <CharString name="percent">
          262 100 callgsubr
          hintmask 11011111
          191 258 -84 callsubr
          -16 -604 41 callgsubr
          -80 hlineto
          -473 -684 rlineto
          460 hmoveto
          116 76 116 140 hvcurveto
          hintmask 10111111
          97 -61 63 -77 -116 -76 -117 -140 vhcurveto
          hintmask 11011111
          -96 60 -63 78 vhcurveto
          hintmask 10111111
          101 callgsubr
          endchar
        </CharString>
        <CharString name="period">
          -276 -12 175 hstem
          24 168 vstem
          94 -12 rmoveto
          59 88 callsubr
          -49 -44 28 -30 42 hvcurveto
          endchar
        </CharString>
        <CharString name="period.dnom">
          -368 -8 122 hstem
          -2 120 vstem
          48 -8 110 callgsubr
        </CharString>
        <CharString name="period.numr">
          -368 262 122 hstem
          48 120 vstem
          98 262 110 callgsubr
        </CharString>
        <CharString name="period.subs">
          -368 -178 122 hstem
          -41 120 vstem
          10 -178 109 callgsubr
        </CharString>
        <CharString name="period.sups">
          -368 432 122 hstem
          79 120 vstem
          130 432 109 callgsubr
        </CharString>
        <CharString name="periodcentered">
          -276 47 callsubr
        </CharString>
        <CharString name="perthousand">
          635 100 callgsubr
          42 97 136 97 hintmask 1011111111000000
          221 -12 41 callgsubr
          -80 hlineto
          -473 -684 rlineto
          hintmask 1101111100000000
          49 270 -84 callsubr
          365 -604 rmoveto
          116 76 116 140 hvcurveto
          hintmask 0010001100000000
          97 -61 63 -77 -116 -76 -117 -140 vhcurveto
          hintmask 1101111100000000
          -96 60 -63 78 vhcurveto
          hintmask 1010001111000000
          101 callgsubr
          327 -334 -84 callsubr
          endchar
        </CharString>
        <CharString name="peseta">
          -58 21 -21 228 85 81 85 77 87 hstem
          358 127 vstem
          205 313 rmoveto
          16 81 rlineto
          124 hlineto
          -51 -19 -41 -30 -56 hhcurveto
          49 243 rmoveto
          50 27 -25 -52 3 hvcurveto
          -120 hlineto
          16 77 rlineto
          286 -77 rmoveto
          -55 hlineto
          1 0 1 1 vvcurveto
          115 -78 46 -104 vhcurveto
          -161 hlineto
          -33 -165 -63 -4 -15 -80 rlineto
          61 hlineto
          -79 -394 rlineto
          129 hlineto
          45 228 rlineto
          33 hlineto
          111 106 52 114 35 hvcurveto
          52 hlineto
          endchar
        </CharString>
        <CharString name="pi">
          15 -12 107 291 108 hstem
          326 138 vstem
          52 hmoveto
          135 hlineto
          77 386 rlineto
          116 hlineto
          -50 -255 rlineto
          -78 -16 27 -65 97 hhcurveto
          29 23 5 8 18 hvcurveto
          -4 98 rlineto
          -2 -7 -8 -2 -8 hhcurveto
          -18 -2 16 30 6 hvcurveto
          49 245 rlineto
          65 hlineto
          23 108 rlineto
          -465 hlineto
          -72 -5 -20 -103 rlineto
          82 hlineto
          endchar
        </CharString>
        <CharString name="plus">
          -58 282 97 hstem
          215 100 vstem
          215 95 rmoveto
          100 187 170 97 -168 185 -101 -185 -168 -97 167 hlineto
          endchar
        </CharString>
        <CharString name="plusminus">
          -58 0 97 214 97 hstem
          215 100 vstem
          215 154 rmoveto
          100 157 170 97 -168 156 -101 -156 -168 -97 167 hlineto
          270 -311 rmoveto
          149 callsubr
          endchar
        </CharString>
        <CharString name="product">
          114 515 120 hstem
          4 674 vstem
          4 -120 rmoveto
          136 hlineto
          127 635 rlineto
          252 hlineto
          -127 -635 -29 callgsubr
          149 755 rlineto
          -524 hlineto
          endchar
        </CharString>
        <CharString name="q">
          -15 115 callgsubr
          -12 -20 4 callsubr
          hintmask 11101000
          292 -50 rmoveto
          -28 -134 -29 callgsubr
          hintmask 11011000
          136 680 rlineto
          -109 hlineto
          hintmask 11101000
          -22 -53 rlineto
          -2 hlineto
          40 -19 -44 25 -45 hhcurveto
          -137 -128 -149 -189 -117 53 -65 87 52 59 30 47 45 hvcurveto
          2 hlineto
          -98 35 rmoveto
          -36 -22 27 60 119 64 90 69 23 27 -14 -33 16 hvcurveto
          -35 -176 rlineto
          -56 -34 -41 -17 -31 hhcurveto
          endchar
        </CharString>
        <CharString name="q.sups">
          -199 254 78 189 78 hstem
          54 99 vstem
          396 591 rmoveto
          -78 hlineto
          -15 -35 rlineto
          -4 hlineto
          26 -13 -26 17 -28 hhcurveto
          -92 -86 -99 -125 -78 36 -43 58 35 38 19 31 29 hvcurveto
          4 hlineto
          -27 -76 -21 -100 rlineto
          97 hlineto
          -115 204 rmoveto
          -20 -15 17 38 76 42 58 43 15 16 -9 -21 9 hvcurveto
          -20 -111 rlineto
          -36 -22 -26 -12 -22 hhcurveto
          endchar
        </CharString>
        <CharString name="question">
          -123 -12 175 -154 -21 584 110 hstemhm
          90 168 65 134 hintmask 01111000
          161 -12 rmoveto
          58 39 50 50 hvcurveto
          hintmask 10111000
          183 callsubr
          -49 vhcurveto
          hintmask 01111000
          -44 28 -30 43 vhcurveto
          -15 244 rmoveto
          116 -10 rlineto
          20 136 175 17 156 vvcurveto
          95 -73 56 -108 -60 -56 -25 -46 -47 vhcurveto
          69 -78 rlineto
          26 26 25 13 26 hhcurveto
          40 24 -24 -38 -95 -161 -23 -16 -160 hvcurveto
          endchar
        </CharString>
        <CharString name="questiondown">
          -123 -186 111 409 174 0 -20 hstemhm
          -1 133 66 168 hintmask 10111000
          295 508 rmoveto
          -58 -39 -50 -50 hvcurveto
          hintmask 11011000
          -42 27 -32 43 58 40 52 48 vhcurveto
          hintmask 10111000
          44 -28 30 -43 vhcurveto
          15 -244 rmoveto
          -116 11 rlineto
          -20 -136 -175 -17 -156 vvcurveto
          -95 73 -57 108 60 56 26 46 47 vhcurveto
          -70 77 rlineto
          -26 -25 -25 -12 -26 hhcurveto
          -40 -25 23 38 95 162 24 16 159 hvcurveto
          endchar
        </CharString>
        <CharString name="quotedbl">
          -57 363 307 hstem
          121 393 vstem
          121 363 rmoveto
          89 hlineto
          57 93 callsubr
          198 -181 rmoveto
          90 hlineto
          56 93 callsubr
          endchar
        </CharString>
        <CharString name="quotedblbase">
          -162 19 146 hstem
          39 157 62 30 callsubr
          241 -59 rmoveto
          93 29 79 77 120 vvcurveto
          61 -29 36 -44 -51 -33 -40 -43 -39 31 -24 41 vhcurveto
          2 2 0 2 hhcurveto
          -1 -32 -41 -58 -73 -28 rrcurveto
          endchar
        </CharString>
        <CharString name="quotedblleft">
          -57 355 145 hstem
          97 157 62 157 vstem
          269 677 rmoveto
          -9 callgsubr
          198 59 rmoveto
          -93 -29 -80 -77 -120 vvcurveto
          -61 29 -35 45 51 32 39 43 40 -30 23 -41 vhcurveto
          -2 -2 0 -2 hhcurveto
          1 32 40 58 74 28 rrcurveto
          endchar
        </CharString>
        <CharString name="quotedblright">
          -57 552 145 hstem
          222 80 139 80 vstem
          -57 callsubr
          242 -60 rmoveto
          92 29 80 78 119 vvcurveto
          61 -29 36 -45 -51 -32 -39 -43 -40 31 -23 41 vhcurveto
          2 1 0 2 hhcurveto
          -1 -33 -40 -57 -73 -28 rrcurveto
          endchar
        </CharString>
        <CharString name="quoteleft">
          -276 355 145 -145 322 hstemhm
          97 157 hintmask 01100000
          269 677 rmoveto
          hintmask 10100000
          -9 callgsubr
          endchar
        </CharString>
        <CharString name="quoteright">
          -276 552 145 hstem
          222 80 vstem
          -57 callsubr
          endchar
        </CharString>
        <CharString name="quotesinglbase">
          -276 19 146 hstem
          39 30 callsubr
          endchar
        </CharString>
        <CharString name="quotesingle">
          -276 363 307 hstem
          121 174 vstem
          121 363 rmoveto
          89 hlineto
          57 93 callsubr
          endchar
        </CharString>
        <CharString name="r">
          168 callgsubr
          hstemhm
          14 411 hintmask 10011000
          -74 callgsubr
          56 287 rlineto
          hintmask 11001000
          -4 callgsubr
          hintmask 10011000
          45 -2 callsubr
          hintmask 11001000
          -25 callsubr
          hintmask 10101000
          6 96 98 callgsubr
          endchar
        </CharString>
        <CharString name="r.sups">
          -314 514 84 -60 53 hstemhm
          43 273 hintmask 10100000
          43 262 rmoveto
          96 hlineto
          39 200 rlineto
          37 25 24 15 31 hhcurveto
          10 8 0 -5 9 hvcurveto
          31 83 rlineto
          4 -7 -10 2 -17 hhcurveto
          -37 -33 -25 -35 -26 hvcurveto
          -3 hlineto
          hintmask 01100000
          2 53 rlineto
          -78 hlineto
          endchar
        </CharString>
        <CharString name="racute">
          125 callsubr
          437 182 callgsubr
          56 287 rlineto
          hintmask 11001100
          -4 callgsubr
          hintmask 10011100
          45 -2 callsubr
          hintmask 11001100
          -25 callsubr
          hintmask 10101100
          6 96 98 callgsubr
          87 77 99 callgsubr
        </CharString>
        <CharString name="radical">
          -2 -83 135 -135 903 hstemhm
          52 630 hintmask 01100000
          264 131 rmoveto
          -34 303 -178 -68 8 -66 80 31 rlineto
          hintmask 10100000
          61 -414 rlineto
          94 hlineto
          387 903 rlineto
          -91 hlineto
          -289 -689 -28 -79 rlineto
          -4 hlineto
          endchar
        </CharString>
        <CharString name="rcaron">
          125 callsubr
          444 182 callgsubr
          56 287 rlineto
          hintmask 11001100
          -4 callgsubr
          hintmask 10011100
          45 -2 callsubr
          hintmask 11001100
          -25 callsubr
          hintmask 10101100
          6 96 98 callgsubr
          346 226 rmoveto
          -95 4 callgsubr
          -36 80 rlineto
          -89 130 callgsubr
          rlineto
          107 hlineto
          endchar
        </CharString>
        <CharString name="registered">
          -123 312 47 119 38 56 40 55 47 hstem
          81 51 175 59 46 51 vstem
          177 416 rmoveto
          54 hlineto
          13 62 rlineto
          26 hlineto
          18 -62 rlineto
          54 hlineto
          -25 74 rlineto
          32 12 17 25 27 vvcurveto
          37 -27 21 -40 vhcurveto
          -82 hlineto
          34 -96 rmoveto
          11 56 rlineto
          18 hlineto
          20 7 -9 -14 -18 -14 -15 -26 hvcurveto
          -12 -204 rmoveto
          122 86 110 115 hvcurveto
          103 -2 -79 74 -93 hhcurveto
          -124 -84 -110 -115 -103 80 -74 94 hvcurveto
          31 355 rmoveto
          76 50 -58 -76 -93 -64 -81 -90 -77 -49 59 75 93 64 81 90 hvcurveto
          endchar
        </CharString>
        <CharString name="ring">
          -33 546 53 95 53 hstem
          242 66 79 67 vstem
          341 23 callgsubr
        </CharString>
        <CharString name="s">
          118 callgsubr
          hstem
          62 128 58 128 vstem
          -8 84 rmoveto
          -62 41 76 -34 61 hhcurveto
          -98 callsubr
          endchar
        </CharString>
        <CharString name="s.sups">
          -282 254 68 208 69 hstem
          75 90 32 89 vstem
          23 310 rmoveto
          -34 30 50 -22 45 hhcurveto
          84 54 43 65 47 -31 26 -37 19 hvcurveto
          -26 15 -27 11 19 vvcurveto
          17 13 14 24 28 24 -17 -18 20 vhcurveto
          45 57 rlineto
          24 -30 -39 23 -48 hhcurveto
          -72 -55 -47 -62 -43 30 -27 35 -21 hvcurveto
          38 -24 19 -6 -15 vvcurveto
          -19 -14 -13 -28 -28 -25 16 24 -25 vhcurveto
          endchar
        </CharString>
        <CharString name="sacute">
          118 callgsubr
          65 149 hstem
          62 128 58 128 vstem
          -8 84 rmoveto
          -62 41 76 -34 61 hhcurveto
          -98 callsubr
          125 423 -62 callsubr
        </CharString>
        <CharString name="scaron">
          118 callgsubr
          65 149 hstem
          62 128 58 128 vstem
          -8 84 rmoveto
          -62 41 76 -34 61 hhcurveto
          -98 callsubr
          385 572 -72 callsubr
        </CharString>
        <CharString name="scircumflex">
          118 callgsubr
          65 149 hstem
          62 128 58 128 vstem
          -8 84 rmoveto
          -62 41 76 -34 61 hhcurveto
          -98 callsubr
          61 423 -67 callsubr
          endchar
        </CharString>
        <CharString name="section">
          -62 -80 102 564 104 hstemhm
          49 117 -29 123 -2 124 -25 119 hintmask 11100100
          166 334 rmoveto
          35 19 22 27 14 vhcurveto
          63 -46 82 -29 -54 vvcurveto
          -36 -16 -22 -28 -14 vhcurveto
          -63 47 -84 27 56 vvcurveto
          317 276 rmoveto
          50 -47 -61 30 -62 hhcurveto
          hintmask 11010100
          -105 -71 -70 -94 -23 6 -20 10 -17 hvcurveto
          hintmask 11101000
          -60 -29 -44 -51 -68 -153 209 -22 -72 vvcurveto
          -30 -22 -19 -37 -48 -49 33 34 -33 vhcurveto
          -68 -85 rlineto
          -53 54 73 -31 64 hhcurveto
          113 77 67 100 19 -4 16 -6 15 hvcurveto
          hintmask 11010100
          64 33 40 48 74 148 -216 33 67 vvcurveto
          30 24 16 28 40 35 -26 -26 27 vhcurveto
          endchar
        </CharString>
        <CharString name="semicolon">
          -276 0 163 159 175 hstemhm
          26 176 -122 169 hintmask 11010000
          -13 -187 rmoveto
          hintmask 11100000
          64 callgsubr
          hintmask 11010000
          205 609 rmoveto
          -58 -40 -52 -49 -44 29 -30 42 59 39 50 50 42 -28 33 -43 hvcurveto
          endchar
        </CharString>
        <CharString name="seven">
          -58 21 -21 520 115 hstem
          99 444 vstem
          100 hmoveto
          141 hlineto
          40 186 54 187 191 176 135 callgsubr
          -134 -74 -165 -59 -221 rrcurveto
          endchar
        </CharString>
        <CharString name="seven.dnom">
          -203 305 85 hstem
          60 297 vstem
          61 hmoveto
          -1 callgsubr
          endchar
        </CharString>
        <CharString name="seven.numr">
          -203 575 85 hstem
          110 297 vstem
          111 270 rmoveto
          -1 callgsubr
          endchar
        </CharString>
        <CharString name="seven.onum">
          -87 463 115 hstem
          70 443 vstem
          70 -78 rmoveto
          141 hlineto
          40 194 54 199 190 177 18 86 rcurveline
          -413 hlineto
          -23 -115 rlineto
          260 hlineto
          -134 -136 -74 -174 -59 -231 rrcurveto
          endchar
        </CharString>
        <CharString name="seven.pnum">
          -87 21 -21 520 115 hstem
          87 434 vstem
          87 hmoveto
          141 hlineto
          40 186 55 187 181 176 17 86 rcurveline
          -411 hlineto
          -22 -115 rlineto
          258 hlineto
          -127 -134 -73 -165 -59 -221 rrcurveto
          endchar
        </CharString>
        <CharString name="seven.subs">
          -203 135 85 hstem
          22 296 vstem
          22 -170 41 callsubr
        </CharString>
        <CharString name="seven.sups">
          -203 745 85 hstem
          142 296 vstem
          142 440 41 callsubr
        </CharString>
        <CharString name="seven.tnum">
          -58 463 115 hstem
          82 447 vstem
          82 -78 rmoveto
          141 hlineto
          39 193 59 197 191 180 135 callgsubr
          -137 -77 -175 -60 -229 rrcurveto
          endchar
        </CharString>
        <CharString name="seveneighths">
          236 -12 68 276 70 173 85 hstemhm
          447 144 callgsubr
          hintmask 10101100
          91 270 rmoveto
          -1 callgsubr
          90 -282 41 callgsubr
          -80 hlineto
          -473 -684 rlineto
          hintmask 10110100
          439 19 callgsubr
          hintmask 11101010
          -18 callsubr
          hintmask 10110100
          -188 -141 rmoveto
          -60 52 -45 81 102 callsubr
          hintmask 11101010
          41 -8 callgsubr
          hintmask 10110100
          90 callgsubr
        </CharString>
        <CharString name="six">
          -94 callsubr
        </CharString>
        <CharString name="six.dnom">
          -206 -12 139 callsubr
          17 94 101 90 vstem
          160 68 -26 callsubr
        </CharString>
        <CharString name="six.numr">
          -206 258 139 callsubr
          67 94 101 90 vstem
          210 338 -26 callsubr
        </CharString>
        <CharString name="six.onum">
          -94 callsubr
        </CharString>
        <CharString name="six.pnum">
          -94 callsubr
        </CharString>
        <CharString name="six.subs">
          -206 -182 139 callsubr
          -21 93 102 90 vstem
          122 -102 -26 callgsubr
        </CharString>
        <CharString name="six.sups">
          -206 428 139 callsubr
          99 93 102 90 vstem
          242 508 -26 callgsubr
        </CharString>
        <CharString name="six.tnum">
          -94 callsubr
        </CharString>
        <CharString name="slash">
          -238 -160 870 hstem
          -69 463 vstem
          -69 -160 rmoveto
          89 hlineto
          374 870 rlineto
          -91 hlineto
          endchar
        </CharString>
        <CharString name="slash.frac">
          -473 -12 684 hstem
          -213 554 vstem
          -133 -12 24 callsubr
          endchar
        </CharString>
        <CharString name="space">
          -369 endchar
        </CharString>
        <CharString name="space.frac">
          -429 endchar
        </CharString>
</ttFont>
